<svg xmlns="http://www.w3.org/2000/svg" width="37.396" height="23.838" viewBox="0 0 37.396 23.838">
  <g id="roy-plaza-store-powered-by" transform="translate(-796 -103.416)">
    <g id="Group_238" data-name="Group 238" transform="translate(796 103.416)">
      <path id="Path_301" data-name="Path 301" d="M-1652.767,1669.892q-.532-.642-1.047-1.3-.483-.616-.944-1.249-.572-.787-1.123-1.588a13.876,13.876,0,0,1-1.05-1.8c-.073-.152-.131-.313-.194-.468.42-.17.821-.317,1.207-.494a16.48,16.48,0,0,0,1.944-1.007c.41-.259.826-.512,1.219-.8a9.9,9.9,0,0,0,1.536-1.325c.235-.255.467-.513.68-.786a7.241,7.241,0,0,0,.448-.686,3.767,3.767,0,0,0,.466-1.159,2.106,2.106,0,0,0-.045-1.137,1.625,1.625,0,0,0-.6-.793,2.671,2.671,0,0,0-1.233-.468,5.113,5.113,0,0,0-1.294-.038c-.309.034-.618.058-.924.109-.287.046-.568.118-.851.184-.211.05-.423.1-.629.165-.315.1-.627.208-.939.318-.346.124-.7.24-1.033.383-.524.221-1.044.45-1.556.7-.489.236-.969.492-1.447.752-.412.225-.816.465-1.22.705-.387.231-.774.464-1.152.708-.476.308-.946.624-1.414.942q-.853.581-1.7,1.174c-.4.279-.792.564-1.185.852q-.721.528-1.437,1.066-.636.479-1.265.968l-.342.266.2.752q.626-.468,1.255-.932c.253-.187.507-.375.763-.557q.866-.621,1.737-1.237c.242-.172.48-.346.723-.515.386-.269.775-.535,1.162-.8l1.169-.807c.387-.267.771-.538,1.161-.8.5-.338,1.009-.674,1.52-1,.456-.292.919-.571,1.38-.854a.891.891,0,0,1,.143-.056c-.009.048-.011.068-.018.088-.16.472-.334.94-.478,1.417s-.275.987-.4,1.484q-.188.781-.344,1.57c-.144.735-.283,1.473-.4,2.212-.114.69-.209,1.383-.3,2.077-.068.505-.126,1.012-.181,1.519-.073.674-.143,1.348-.2,2.022-.054.6-.1,1.195-.138,1.793-.041.7-.069,1.4-.092,2.095-.006.172-.008.344-.008.516l.711-.188c.01-.527.021-1.053.041-1.58.018-.475.044-.95.073-1.424.034-.574.071-1.147.115-1.72.035-.461.079-.922.124-1.383.06-.618.119-1.237.187-1.854.05-.448.114-.895.175-1.341.05-.364.1-.728.161-1.089.111-.638.226-1.274.351-1.909.1-.529.212-1.057.34-1.579.109-.449.235-.9.377-1.334.165-.51.356-1.011.541-1.514.032-.088.052-.187.16-.238a17.7,17.7,0,0,1,2.276-.911c.334-.1.669-.209,1.01-.292a7.9,7.9,0,0,1,.848-.149c.285-.037.572-.059.858-.074a3.6,3.6,0,0,1,1.2.134,1.943,1.943,0,0,1,.779.422,1.382,1.382,0,0,1,.407.878,1.688,1.688,0,0,1-.073.728,3.881,3.881,0,0,1-.757,1.355,10.927,10.927,0,0,1-.817.874,9.512,9.512,0,0,1-1.308,1.045c-.4.267-.8.536-1.207.78s-.813.458-1.232.662c-.6.292-1.217.565-1.829.839-.069.031-.08.057-.062.117a4.469,4.469,0,0,0,.173.554c.214.469.431.938.676,1.39a21.5,21.5,0,0,0,1.273,2.031q.551.79,1.12,1.568c.3.4.607.795.914,1.189.221.282.445.564.673.842s.441.535.663.8l.874-.232-.155-.177Q-1652.183,1670.6-1652.767,1669.892Z" transform="translate(1671.126 -1651.343)" fill="#fff"/>
      <path id="Path_302" data-name="Path 302" d="M-1663.113,1685.242c.049-.61.1-1.219.179-1.827.1-.81.208-1.617.333-2.422.1-.624.213-1.245.338-1.864q.2-.98.433-1.952c.1-.422.232-.837.362-1.252.1-.318.217-.63.328-.945.031-.089.072-.175.11-.263l-.019-.01c-.119.091-.243.175-.357.273-.329.281-.654.568-.98.853-.306.27-.613.541-.916.813-.4.361-.8.725-1.2,1.088q-.548.5-1.1,1c-.339.313-.676.627-1.015.939-.23.213-.463.426-.694.638l1.589,6a1.917,1.917,0,0,0,.046.236,1.891,1.891,0,0,0,.078.229,1.773,1.773,0,0,0,1.854,1.077,1.766,1.766,0,0,0,.236-.046,1.832,1.832,0,0,0,.223-.075c0-.04,0-.081.005-.121C-1663.222,1686.823-1663.175,1686.032-1663.113,1685.242Z" transform="translate(1669.482 -1664.031)" fill="#fff"/>
      <path id="Path_303" data-name="Path 303" d="M-1635.105,1664.854a6.294,6.294,0,0,0,1.115-1.269,3.308,3.308,0,0,0,.472-1.077,1.387,1.387,0,0,0-.015-.737,1.049,1.049,0,0,0-.791-.722,2.446,2.446,0,0,0-1.049-.021,4.523,4.523,0,0,0-.712.18c-.322.112-.637.249-.951.382a.283.283,0,0,0-.153.126c-.166.423-.343.844-.473,1.278-.154.51-.28,1.03-.39,1.552-.122.581-.215,1.168-.316,1.753-.029.164-.046.33-.069.506.066-.026.115-.047.164-.065a10.718,10.718,0,0,0,1.375-.644A9.572,9.572,0,0,0-1635.105,1664.854Z" transform="translate(1651.107 -1655.294)" fill="#fff"/>
      <path id="Path_304" data-name="Path 304" d="M-1636.3,1685.385c-.282-.417-.562-.838-.824-1.267s-.521-.891-.773-1.342c-.179-.319-.358-.64-.517-.97a14.664,14.664,0,0,1-.858-2.076c-.086-.288-.179-.574-.244-.867-.072-.328-.116-.663-.172-.989a.213.213,0,0,0-.01.039c-.021.176-.042.353-.06.529-.075.739-.154,1.477-.222,2.217-.054.6-.105,1.195-.139,1.793-.053.961-.092,1.923-.133,2.885-.021.509-.032,1.019-.048,1.528-.01.342-.023.683-.029,1.025,0,.109,0,.218,0,.328l5.064-1.343-.021-.029C-1635.636,1686.366-1635.968,1685.875-1636.3,1685.385Z" transform="translate(1652.312 -1666.045)" fill="#fff"/>
      <path id="Path_305" data-name="Path 305" d="M-1612.273,1680.756a.435.435,0,0,0-.122.007,1.3,1.3,0,0,0-.186.057.287.287,0,0,0-.186.182,1.438,1.438,0,0,0-.042.3c-.032.328-.064.656-.094.985a2.892,2.892,0,0,0-.02.358c0,.1.016.115.115.113a1.149,1.149,0,0,0,.145-.019c.054-.021.109-.038.16-.062a.244.244,0,0,0,.148-.182c.017-.088.034-.176.043-.264.033-.327.063-.655.092-.982.011-.124.021-.248.027-.371C-1612.191,1680.8-1612.216,1680.76-1612.273,1680.756Z" transform="translate(1634.869 -1667.879)" fill="#fff"/>
      <path id="Path_306" data-name="Path 306" d="M-1669.809,1659.238c.521-.347,1.042-.693,1.57-1.028q.9-.57,1.808-1.119c.658-.4,1.317-.791,1.986-1.169.711-.4,1.432-.787,2.153-1.173.369-.2.745-.385,1.122-.568.436-.211.875-.414,1.315-.615l-11.877,3.148a1.789,1.789,0,0,0-.24.047,1.755,1.755,0,0,0-.231.078,1.773,1.773,0,0,0-1.069,1.887,2.011,2.011,0,0,0,.041.2,1.867,1.867,0,0,0,.065.2l.7,2.648a13.928,13.928,0,0,1,1.012-1.423C-1670.9,1659.978-1670.359,1659.6-1669.809,1659.238Z" transform="translate(1673.29 -1650.574)" fill="#fff"/>
      <path id="Path_307" data-name="Path 307" d="M-1594.3,1658.056a3.5,3.5,0,0,0,0,.552A3.893,3.893,0,0,1-1594.3,1658.056Zm.081,1.089.032.144.011.01C-1594.192,1659.249-1594.206,1659.2-1594.219,1659.145Zm.436-3.068-.228.666a5.873,5.873,0,0,1,.279-.636Z" transform="translate(1623.022 -1652.173)" fill="#fff"/>
      <path id="Path_308" data-name="Path 308" d="M-1611.735,1657.062a1.751,1.751,0,0,0-.593-.919,1.767,1.767,0,0,0-.337-.218l-1.31-.755a4.132,4.132,0,0,0-.192.819,2.94,2.94,0,0,0,.033,1.015,1.181,1.181,0,0,1,.342.569,1.119,1.119,0,0,1,.038.241,1.192,1.192,0,0,1-.218.755,1.177,1.177,0,0,1-.439.381,1.194,1.194,0,0,1-.232.088,1.191,1.191,0,0,1-.646-.01,1.192,1.192,0,0,1-.82-.842,1.194,1.194,0,0,1,.058-.781,4.964,4.964,0,0,1-.057-1.661,6.231,6.231,0,0,1,.414-1.564l-1.957-1.127a2.994,2.994,0,0,1,.175.551,4.976,4.976,0,0,1,.1.924,4.57,4.57,0,0,1-.171,1.244,7.076,7.076,0,0,1-.679,1.688,7.94,7.94,0,0,1-.71,1.1c-.213.271-.428.539-.651.8a10.281,10.281,0,0,1-1.408,1.338c-.334.266-.687.509-1.039.75a11.523,11.523,0,0,1-1.456.833,12.339,12.339,0,0,1-1.916.762c-.29.087-.583.167-.875.25l-.361.1c.056.122.1.24.162.352a5.559,5.559,0,0,0,.855,1.177c.42.44.837.883,1.282,1.3s.916.8,1.383,1.193c.394.328.8.649,1.2.966.308.242.623.478.938.712.153.114.3.227.459.339l2.837-.751c.039-.008.079-.017.118-.028s.078-.022.116-.036a1.751,1.751,0,0,0,.937-.746.009.009,0,0,0,0-.006,1.752,1.752,0,0,0,.106-.2h0l3.4-7.289.308-.662.264-.564.33-.706.014-.032,0-.006.068-.13,0-.007A1.762,1.762,0,0,0-1611.735,1657.062Zm-7.287,6.421a6.877,6.877,0,0,1-.1.762.734.734,0,0,1-.24.4,2.5,2.5,0,0,1-.587.391c-.118.059-.238.115-.359.168-.082.036-.166.067-.25.1-.125.043-.251.089-.377.129-.162.052-.324.1-.487.148,0,0,0,0,0-.006-.086.023-.173.048-.259.067-.137.031-.275.062-.413.088-.113.022-.227.041-.341.053a2.962,2.962,0,0,1-.644.024.923.923,0,0,1-.376-.106.274.274,0,0,1-.139-.24,4.431,4.431,0,0,1,.035-.711c.018-.185.033-.371.058-.555a1.028,1.028,0,0,1,.122-.414,1.113,1.113,0,0,1,.265-.279,2.58,2.58,0,0,1,.42-.268c.111-.058.223-.109.336-.159.135-.059.275-.113.412-.167.045-.018.09-.031.135-.045.114-.034.226-.071.339-.1.2-.057.393-.112.591-.164.1-.026.207-.05.312-.067.153-.027.307-.048.46-.072a2.742,2.742,0,0,1,.469-.027,1.267,1.267,0,0,1,.375.054.4.4,0,0,1,.227.143.354.354,0,0,1,.049.193A4.382,4.382,0,0,1-1619.022,1663.483Zm4.486-2.47c-.085.116-.171.23-.257.346l-.289.394-.312.42-.262.357c-.094.127-.188.256-.284.383-.049.066-.1.131-.146.2a.167.167,0,0,0-.023.08q-.045.463-.086.925c0,.026-.017.029-.035.032-.171.046-.343.091-.513.137q-.615.16-1.228.323a.427.427,0,0,1-.048.013c0-.045.006-.085.01-.125.015-.166.031-.333.047-.5.011-.116.023-.233.034-.35a.075.075,0,0,0-.018-.061c-.139-.162-.276-.325-.414-.488s-.257-.3-.385-.448l-.367-.43a.347.347,0,0,1-.021-.029l.04-.013,1.727-.457c.029-.008.042-.007.056.025.053.121.113.239.166.36.036.079.065.161.094.243s.05.145.073.219a.753.753,0,0,1,.016.1l.093-.2c.036-.073.07-.15.108-.222.073-.139.148-.279.224-.417.067-.122.136-.241.206-.362a.083.083,0,0,1,.043-.026l1.244-.329c.159-.043.318-.084.476-.127l.048-.011A.237.237,0,0,1-1614.537,1661.012Z" transform="translate(1643.597 -1650.249)" fill="#fff"/>
      <path id="Path_309" data-name="Path 309" d="M-1587.627,1646.151c-1.582-1.465-4.5-.9-6.5,1.264-.073.078-.143.158-.211.239-.034.04-.067.08-.1.122s-.066.082-.1.123l-.1.124a7.351,7.351,0,0,0-.427.643c-.026.044-.052.088-.076.132a6.555,6.555,0,0,0-.326.673l-.041.1-.018.045c-.021.053-.041.106-.059.161s-.037.108-.054.162-.034.108-.049.162-.031.108-.045.164-.025.1-.036.148-.026.118-.038.177-.02.109-.029.164-.016.109-.023.163c-.013.1-.022.2-.029.3a4.179,4.179,0,0,0,.007.66c0,.053.01.105.018.159s.01.082.017.123c0,.016,0,.033.008.051.016.089.034.176.056.261,0,.019.008.038.014.056.01.038.021.075.032.112s.026.081.04.12a.324.324,0,0,0,.016.047c.03.082.062.161.1.24.012.025.023.051.036.074s.03.062.046.09c.035.066.072.13.112.192.015.024.031.049.047.073a.44.44,0,0,0,.087-.014.573.573,0,0,0,.1-.037.484.484,0,0,0,.184-.16.523.523,0,0,0,.077-.161c-.02-.031-.038-.062-.056-.094a2.211,2.211,0,0,1-.107-.211.48.48,0,0,1-.026-.056l-.018-.041c-.009-.022-.017-.043-.025-.066-.021-.055-.04-.112-.057-.169a.349.349,0,0,1-.011-.039c-.011-.038-.022-.076-.031-.115s-.023-.1-.032-.152c-.007-.033-.012-.067-.018-.1-.007-.05-.014-.1-.02-.15s-.009-.09-.012-.136a3.483,3.483,0,0,1-.007-.389c0-.031,0-.061,0-.091a.649.649,0,0,1,0-.071c0-.032,0-.064.008-.1s.009-.089.015-.132c.01-.082.023-.163.038-.244.007-.041.015-.082.024-.123s.017-.08.027-.122a.043.043,0,0,1,0-.011c.007-.032.015-.064.024-.1s.021-.08.032-.12.023-.08.036-.12c.025-.081.052-.161.082-.242v0c.043-.116.089-.231.142-.346.018-.045.038-.089.06-.132s.048-.1.073-.151l0-.007,0-.006c.029-.061.062-.121.095-.181l0-.006c.033-.06.068-.12.1-.178l.016-.027c.036-.059.071-.116.109-.174s.1-.143.146-.213c.035-.052.073-.1.113-.154s.081-.108.124-.16l.017-.021c.039-.05.079-.1.12-.145.058-.068.118-.135.18-.2a5.5,5.5,0,0,1,3.843-1.9,3,3,0,0,1,1.005.164,2.412,2.412,0,0,1,.84.5c1.348,1.25.992,3.836-.8,5.766a5.886,5.886,0,0,1-3.056,1.817l-.027.006-.172.369-.121.256c.143-.015.289-.038.436-.068a6.469,6.469,0,0,0,3.362-1.989,6.216,6.216,0,0,0,1.758-4.093A3.307,3.307,0,0,0-1587.627,1646.151Z" transform="translate(1624.029 -1645.337)" fill="#fff"/>
      <path id="Path_310" data-name="Path 310" d="M-1587.627,1646.151c-1.582-1.465-4.5-.9-6.5,1.264-.073.078-.143.158-.211.239-.034.04-.067.08-.1.122s-.066.082-.1.123l-.1.124a7.351,7.351,0,0,0-.427.643c-.026.044-.052.088-.076.132a6.555,6.555,0,0,0-.326.673l-.041.1-.018.045c-.021.053-.041.106-.059.161s-.037.108-.054.162c0,.014-.01.027-.013.04-.013.041-.026.082-.036.122s-.031.108-.045.164-.025.1-.036.148-.026.118-.038.177-.02.109-.029.164-.016.109-.023.163c-.013.1-.022.2-.029.3a4.179,4.179,0,0,0,.007.66c0,.053.01.105.018.159s.01.082.017.123c0,.016,0,.033.008.051.015.089.033.176.056.261,0,.019.008.038.014.056.01.038.021.075.032.112s.026.081.04.12a.324.324,0,0,0,.016.047c.03.082.062.161.1.24.012.025.023.051.036.074s.03.062.046.09c.035.066.072.13.112.192.015.024.031.049.047.073a.44.44,0,0,0,.087-.014.573.573,0,0,0,.1-.037.484.484,0,0,0,.184-.16.523.523,0,0,0,.077-.161c-.02-.031-.038-.062-.056-.094a2.211,2.211,0,0,1-.107-.211.566.566,0,0,1-.026-.056l-.018-.041c-.008-.022-.017-.043-.025-.066-.021-.055-.04-.112-.057-.169a.349.349,0,0,1-.011-.039c-.011-.038-.022-.076-.031-.115s-.023-.1-.032-.152c-.007-.033-.012-.067-.018-.1-.007-.05-.014-.1-.02-.15s-.009-.09-.012-.136a3.483,3.483,0,0,1-.007-.389c0-.031,0-.06,0-.091a.649.649,0,0,1,0-.071c0-.032,0-.064.008-.1s.009-.089.015-.132c.01-.082.023-.163.038-.244.007-.042.015-.082.024-.123s.017-.08.027-.122a.043.043,0,0,1,0-.011c.007-.032.015-.064.024-.1s.021-.08.032-.12.023-.08.036-.12c.025-.081.052-.161.082-.242v0c.043-.116.089-.231.142-.346.018-.044.038-.089.06-.132s.048-.1.073-.151l0-.007,0-.006c.031-.061.063-.121.095-.181l0-.006c.033-.06.068-.12.1-.178l.016-.027c.036-.059.071-.116.109-.174s.1-.143.146-.213c.035-.052.073-.1.113-.154s.081-.108.124-.16l.017-.021c.039-.048.079-.1.12-.145.058-.068.118-.135.18-.2a5.5,5.5,0,0,1,3.843-1.9,3,3,0,0,1,1.005.164,2.412,2.412,0,0,1,.84.5c1.348,1.25.992,3.836-.8,5.766a5.886,5.886,0,0,1-3.056,1.817l-.027.006-.172.369-.121.256c.143-.015.289-.038.436-.068a6.469,6.469,0,0,0,3.362-1.989,6.216,6.216,0,0,0,1.758-4.093A3.307,3.307,0,0,0-1587.627,1646.151Z" transform="translate(1624.029 -1645.337)" fill="#fff"/>
    </g>
  </g>
</svg>
