<svg xmlns="http://www.w3.org/2000/svg" width="16.704" height="16.704" viewBox="0 0 16.704 16.704">
  <g id="tiktok_link_white" transform="translate(-1703.895 -251.881)">
    <path id="Path_369" data-name="Path 369" d="M1714.074,258.48c0,.114,0,.193,0,.273-.005.954.015,1.908-.024,2.861a3.167,3.167,0,0,1-.94,2.183,2.673,2.673,0,0,1-2.89.734,2.72,2.72,0,0,1-1.885-2.345,2.886,2.886,0,0,1,2.635-3.383c.169-.022.339-.034.536-.054,0,.505,0,.984-.007,1.462,0,.042-.088.1-.146.121-.228.072-.468.113-.691.2a1.2,1.2,0,0,0-.893,1.276,1.394,1.394,0,0,0,1.015,1.268,1.252,1.252,0,0,0,1.553-.7,2.766,2.766,0,0,0,.2-1.21q-.009-2.817-.01-5.633a.315.315,0,0,1,.016-.06h1.505a2.2,2.2,0,0,0,2.145,2.155V259.1A3.446,3.446,0,0,1,1714.074,258.48Z" fill="#fff"/>
    <path id="Path_49" data-name="Path 49" d="M1712.247,268.585a8.352,8.352,0,1,1,8.352-8.352h0A8.361,8.361,0,0,1,1712.247,268.585Zm0-15.808a7.456,7.456,0,1,0,7.456,7.456A7.456,7.456,0,0,0,1712.247,252.777Z" fill="#fff"/>
  </g>
</svg>
