<svg id="roy-plaza-favicon" xmlns="http://www.w3.org/2000/svg" width="54.536" height="27.993" viewBox="0 0 54.536 27.993">
  <path id="Path_48" data-name="Path 48" d="M27.26,0c15.055,0,27.26,6.231,27.26,13.917s-12.2,13.917-27.26,13.917S0,21.6,0,13.917,12.2,0,27.26,0Z" transform="translate(0.017)" fill="#0000ad"/>
  <g id="Group_281" data-name="Group 281" transform="translate(0 1.206)">
    <path id="Path_1" data-name="Path 1" d="M543.559,409.166c.041-.238.092-.474.14-.71.082-.414.155-.83.25-1.241.171-.734.345-1.466.534-2.2.162-.626.338-1.247.52-1.867.205-.7.421-1.4.637-2.095.163-.524.33-1.048.507-1.568.245-.713.488-1.427.753-2.133.282-.756.583-1.507.889-2.254q.327-.8.69-1.588c.229-.5.468-1,.727-1.487s.532-.934.8-1.4a.812.812,0,0,0,.038-.089,1.058,1.058,0,0,0-.164.029c-.546.2-1.094.4-1.636.616-.608.239-1.213.489-1.815.742-.467.2-.931.4-1.395.605s-.936.405-1.4.609-.931.4-1.395.605c-.292.127-.581.263-.872.394q-1.048.472-2.093.946c-.31.14-.618.285-.924.43q-.912.432-1.822.869c-.451.218-.9.439-1.35.667-.263.134-.523.277-.792.425a7.306,7.306,0,0,0-.18,3.583q.413-.243.823-.492c.444-.27.887-.544,1.33-.815l1.539-.94c.424-.26.846-.523,1.27-.783q.681-.417,1.368-.833c.5-.3.992-.6,1.491-.9.377-.226.757-.447,1.139-.668.4-.235.808-.47,1.214-.7.14-.08.288-.144.433-.214l.018.014c-.057.085-.119.168-.17.256-.185.309-.373.615-.545.931-.222.411-.446.823-.641,1.248-.3.651-.588,1.311-.865,1.973-.261.629-.513,1.261-.745,1.9-.3.826-.583,1.657-.857,2.492-.2.626-.391,1.259-.569,1.9-.231.82-.446,1.646-.665,2.471-.02.073-.035.145-.052.219a25.371,25.371,0,0,0,3.691,2,.337.337,0,0,0,.01-.047C543.46,409.768,543.508,409.466,543.559,409.166Z" transform="translate(-534.059 -386.755)" fill="#fff"/>
    <path id="Path_2" data-name="Path 2" d="M564.128,413.4q-.453-.4-.9-.8c-.1-.085-.19-.173-.284-.261q-.231-.218-.458-.437l-1.312-1.272c-.274-.266-.549-.53-.819-.8s-.524-.535-.784-.8-.537-.559-.8-.841c-.238-.253-.471-.507-.7-.764-.284-.313-.569-.626-.844-.948-.361-.419-.718-.841-1.066-1.27-.412-.51-.83-1.017-1.214-1.55s-.731-1.086-1.083-1.637a5.935,5.935,0,0,1-.66-1.423c-.04-.13-.064-.266-.1-.407.152-.013.277-.021.4-.032.327-.027.653-.05.978-.082a13.171,13.171,0,0,0,2.183-.407,12.262,12.262,0,0,0,1.712-.577c.422-.182.847-.365,1.255-.576a11.038,11.038,0,0,0,1.766-1.122c.291-.231.574-.471.857-.711a8.538,8.538,0,0,0,.98-1.019,7.632,7.632,0,0,0,1.07-1.643,4.914,4.914,0,0,0,.439-1.279,5.438,5.438,0,0,0,.084-1,3.175,3.175,0,0,0-.532-1.719,3.7,3.7,0,0,0-.918-.935,5.339,5.339,0,0,0-1.75-.82q-.6-.159-1.2-.279a6.218,6.218,0,0,0-.773-.085q-.639-.042-1.279-.062-.524-.015-1.048,0c-.3.008-.607.034-.91.06-.342.029-.685.059-1.026.1-.405.052-.811.113-1.214.182-.579.1-1.156.2-1.732.31-.309.059-.615.134-.921.208-.517.124-1.034.25-1.55.384-.436.115-.872.235-1.3.368-.843.257-1.685.514-2.521.791-.785.26-1.564.539-2.342.822q-1.077.392-2.145.806c-.627.245-1.251.5-1.873.76-.658.274-1.312.555-1.968.833a11.889,11.889,0,0,0-3.227,4c.059-.027.122-.049.177-.078.737-.372,1.473-.746,2.211-1.115q.767-.386,1.539-.76.868-.419,1.741-.827c.475-.222.95-.442,1.43-.654q1.019-.451,2.04-.887c.562-.239,1.125-.475,1.691-.7.451-.179.908-.345,1.367-.509.477-.17.953-.34,1.435-.492.559-.176,1.121-.347,1.687-.493.592-.155,1.191-.289,1.79-.414.387-.081.781-.131,1.173-.19.352-.052.7-.1,1.058-.141.232-.025.467-.034.7-.042.312-.011.626-.028.938-.018.334.011.667.05,1,.078a5.471,5.471,0,0,1,1.36.309,2.9,2.9,0,0,1,1.206.75,1.733,1.733,0,0,1,.47.963,2.266,2.266,0,0,1-.189,1.212,4.031,4.031,0,0,1-.735,1.129,7.5,7.5,0,0,1-.616.632c-.281.245-.581.468-.882.689a10.731,10.731,0,0,1-1.9,1.082c-.474.217-.966.4-1.453.587a17.774,17.774,0,0,1-2.265.658c-.446.108-.9.179-1.379.273.035.176.062.358.108.534a14.816,14.816,0,0,0,.735,2.127q.413.962.855,1.912c.236.51.484,1.016.738,1.516q.407.8.837,1.59c.316.579.634,1.154.964,1.726.351.607.707,1.213,1.077,1.808.546.875,1.1,1.747,1.666,2.6.387.586.809,1.147,1.223,1.715.135.186.286.359.429.532q1.134.048,2.295.049c1.453,0,2.88-.059,4.272-.171-.253-.2-.506-.405-.755-.613C564.456,413.694,564.292,413.547,564.128,413.4Z" transform="translate(-533.848 -387.832)" fill="#fff"/>
    <path id="Path_3" data-name="Path 3" d="M552.215,409.613c-.295-.477-.569-.967-.843-1.456-.333-.6-.657-1.2-.981-1.8q-.275-.512-.537-1.03c-.243-.481-.489-.96-.718-1.448q-.442-.939-.858-1.891a23.289,23.289,0,0,1-.924-2.412c-.164-.53-.3-1.07-.425-1.61a4.848,4.848,0,0,1-.067-.623c-.007-.067.011-.092.089-.11.7-.162,1.41-.323,2.109-.506q.727-.193,1.439-.444c.486-.172.963-.373,1.438-.573a10.22,10.22,0,0,0,1.6-.832,11.8,11.8,0,0,0,1.045-.755,4.17,4.17,0,0,0,1.083-1.275,1.832,1.832,0,0,0,.228-.756,1.49,1.49,0,0,0-.247-1.012,2.115,2.115,0,0,0-.735-.608,3.871,3.871,0,0,0-1.241-.391c-.306-.043-.615-.08-.924-.1a8.552,8.552,0,0,0-.927-.018c-.377.015-.753.057-1.129.1a19.312,19.312,0,0,0-2.6.489c-.124.032-.165.131-.218.218-.3.493-.607.984-.887,1.488-.243.435-.468.88-.676,1.332-.245.527-.47,1.062-.689,1.6-.264.646-.518,1.294-.769,1.945-.141.369-.267.743-.4,1.118-.158.46-.319.918-.464,1.381-.2.639-.393,1.282-.584,1.923-.144.478-.286.955-.421,1.435-.165.6-.323,1.2-.479,1.794-.129.5-.256.992-.373,1.491q-.2.855-.384,1.715c-.1.458-.193.917-.282,1.378-.063.333-.113.668-.169,1-.015.091-.032.183-.05.279q.671.279,1.375.535c.074-.368.145-.738.221-1.107q.126-.625.256-1.249c.091-.446.182-.893.277-1.337.078-.361.164-.718.245-1.078.123-.535.24-1.072.369-1.606.243-1.008.485-2.018.742-3.023.159-.626.338-1.247.52-1.867.227-.767.464-1.532.7-2.3.056-.183.115-.365.173-.546a.165.165,0,0,1,.02-.039c-.01.356-.034.72-.025,1.082.007.323.046.646.077.969a15.782,15.782,0,0,0,.475,2.373c.1.382.221.759.344,1.133.172.528.344,1.058.537,1.579s.4,1.01.608,1.511c.247.588.5,1.177.764,1.754.342.735.7,1.463,1.064,2.19.242.485.49.966.753,1.441.418.755.85,1.5,1.276,2.254.011.021.024.041.038.063q1.419.174,2.894.273c-.4-.541-.823-1.073-1.2-1.634C553.221,411.234,552.718,410.424,552.215,409.613Zm-5.772-12.935-.187.035c.062-.18.115-.354.179-.521.229-.6.45-1.2.7-1.787.225-.528.465-1.051.735-1.558.228-.433.5-.841.766-1.254a.306.306,0,0,1,.187-.1c.361-.075.721-.154,1.086-.205a4.807,4.807,0,0,1,.79-.042,2.62,2.62,0,0,1,1.1.242,1.13,1.13,0,0,1,.686.927,1.511,1.511,0,0,1-.137.783,3.6,3.6,0,0,1-.724,1.04,6.788,6.788,0,0,1-1.444,1.11,10.322,10.322,0,0,1-2.154.94A11.456,11.456,0,0,1,546.443,396.678Z" transform="translate(-531.199 -386.986)" fill="#fff"/>
    <path id="Path_4" data-name="Path 4" d="M553.176,401.654a8.524,8.524,0,0,0,1.807.408c.326.048.655.078.984.1.4.029.806.047,1.21.06.256.01.512,0,.767,0v.017c.485-.018.971-.032,1.458-.057.382-.02.762-.049,1.143-.081.254-.022.51-.045.762-.085.375-.059.748-.127,1.119-.2a7.146,7.146,0,0,0,1.916-.657,2.124,2.124,0,0,0,.963-.946,20.7,20.7,0,0,0,.825-2.046,12.726,12.726,0,0,0,.581-1.8,1.032,1.032,0,0,0,.007-.572,1.169,1.169,0,0,0-.524-.562,3.6,3.6,0,0,0-1-.426,7.9,7.9,0,0,0-1.321-.267c-.444-.049-.887-.1-1.333-.141-.3-.027-.609-.041-.914-.041-.586,0-1.171.007-1.757.018-.34.007-.678.026-1.016.041-.136.006-.272.008-.407.025-.422.049-.846.1-1.266.161-.351.053-.7.117-1.048.194a7.3,7.3,0,0,0-1.363.437,3.2,3.2,0,0,0-.94.576,2.982,2.982,0,0,0-.641,1.063c-.2.492-.382.995-.569,1.494a12.632,12.632,0,0,0-.619,1.948.79.79,0,0,0,.212.77A2.635,2.635,0,0,0,553.176,401.654Zm4.533-1.168a8.455,8.455,0,0,1,.32-.98q.486-1.333.984-2.665a4.054,4.054,0,0,1,.334-.792.827.827,0,0,1,.651-.37,3.724,3.724,0,0,1,.559-.02,1.206,1.206,0,0,1,.342.07c.155.055.2.175.131.389-.109.34-.226.676-.349,1.012-.321.887-.644,1.773-.975,2.658-.089.239-.2.47-.312.7a.7.7,0,0,1-.544.4c-.159.028-.323.035-.489.052a3.006,3.006,0,0,1-.417-.052C557.67,400.816,557.644,400.774,557.71,400.486Z" transform="translate(-526.937 -385.237)" fill="#fff"/>
    <path id="Path_5" data-name="Path 5" d="M576.183,394.565a.585.585,0,0,0,.075-.1h-1.551q-1.847,0-3.7,0a.208.208,0,0,0-.135.045q-.423.421-.837.852-.47.491-.927.991c-.161.175-.31.358-.464.539-.13.152-.257.307-.405.484a2.077,2.077,0,0,0,.025-.279c-.007-.219-.02-.44-.039-.658-.022-.249-.046-.5-.085-.743-.059-.375-.138-.746-.2-1.121-.015-.1-.053-.112-.137-.112h-5.129c-.035,0-.071,0-.12.006.015.042.024.07.036.1q.35.732.7,1.462c.246.509.493,1.016.738,1.525.264.552.524,1.107.791,1.657a.213.213,0,0,1,.007.182l-.352.948q-.249.673-.5,1.346c-.041.108-.077.218-.12.342h5.313c.05,0,.092,0,.117-.064q.455-1.254.919-2.5a.5.5,0,0,1,.122-.2c.177-.155.368-.3.552-.444q.537-.428,1.071-.857c.33-.266.657-.532.988-.8.39-.313.784-.623,1.175-.936.363-.292.725-.588,1.089-.88C575.536,395.079,575.861,394.823,576.183,394.565Z" transform="translate(-522.729 -385.197)" fill="#fff"/>
    <path id="Path_6" data-name="Path 6" d="M568.729,402.041c-.014-.218-.028-.435-.045-.651-.025-.338-.055-.675-.077-1.013,0-.073-.021-.1-.1-.1-.864,0-1.727,0-2.59,0a.15.15,0,0,0-.108.052q-.9,1.172-1.793,2.349a.363.363,0,0,0-.032.074.356.356,0,0,0,.049.008c.615,0,1.228,0,1.843,0a.16.16,0,0,0,.1-.064c.073-.1.133-.212.205-.314a.136.136,0,0,1,.091-.066c.2-.007.394,0,.607,0l-.064.443h1.951c0-.031,0-.053,0-.077C568.757,402.469,568.743,402.255,568.729,402.041ZM567,401.769c0,.078-.026.109-.106.108-.169,0-.34,0-.548,0l.718-1C567.043,401.187,567.018,401.478,567,401.769Z" transform="translate(-522.163 -382.885)" fill="#fff"/>
    <path id="Path_7" data-name="Path 7" d="M562.283,401.405c-.025-.345-.056-.69-.078-1.036,0-.071-.025-.094-.095-.094-.868,0-1.734,0-2.6,0a.146.146,0,0,0-.1.05q-.872,1.142-1.74,2.288c-.031.041-.059.084-.092.133a.353.353,0,0,0,.046.013c.618,0,1.235,0,1.853,0a.157.157,0,0,0,.1-.064c.073-.1.134-.212.205-.316.018-.028.053-.063.083-.064.2-.006.4,0,.615,0l-.063.444h1.958c-.018-.224-.035-.432-.05-.641C562.311,401.88,562.3,401.643,562.283,401.405Zm-1.684.383c0,.068-.033.088-.094.087h-.559l.717-.994C560.64,401.194,560.616,401.49,560.6,401.788Z" transform="translate(-524.71 -382.885)" fill="#fff"/>
    <path id="Path_8" data-name="Path 8" d="M556.553,401.446a2.137,2.137,0,0,0,.226-.451c.135-.362.064-.5-.32-.611l-.021,0c-.4-.034-.8-.089-1.195-.1-.734-.017-1.467,0-2.2-.008a.147.147,0,0,0-.165.12c-.227.627-.457,1.255-.686,1.882l-.178.477a.267.267,0,0,0,.052.01q.905,0,1.811,0c.064,0,.077-.038.094-.084.1-.278.205-.553.3-.831a.088.088,0,0,1,.1-.071c.319,0,.637,0,.955-.021a6.877,6.877,0,0,0,.756-.088A.658.658,0,0,0,556.553,401.446Zm-1.36-.544a1.074,1.074,0,0,0-.059.162.332.332,0,0,1-.327.256c-.1.01-.211,0-.334,0,.068-.19.13-.366.2-.541a.09.09,0,0,1,.066-.046c.124,0,.252.008.376.024C555.191,400.767,555.231,400.815,555.193,400.9Z" transform="translate(-526.922 -382.886)" fill="#fff"/>
    <path id="Path_9" data-name="Path 9" d="M563.6,402.2c.566-.426,1.125-.861,1.7-1.273.232-.165.257-.411.361-.651h-3.1c-.256,0-.257,0-.342.24-.032.088-.061.176-.1.279h1.237l.014.024a.323.323,0,0,0-.043.024c-.629.495-1.258.992-1.888,1.484-.144.112-.145.277-.217.436h3.238c.1,0,.208.024.278-.02s.068-.155.1-.238c.02-.05.039-.1.056-.152a1.061,1.061,0,0,0,.021-.109h-1.354A.492.492,0,0,1,563.6,402.2Z" transform="translate(-523.261 -382.885)" fill="#fff"/>
    <path id="Path_10" data-name="Path 10" d="M558.033,400.277h-.12c-.566,0-1.132,0-1.7,0a.127.127,0,0,0-.145.1c-.267.731-.538,1.46-.806,2.191-.022.059-.038.12-.06.2h2.647c.138,0,.277-.007.417-.01.052-.136.106-.271.157-.407a.487.487,0,0,0,.014-.1h-1.129Z" transform="translate(-525.654 -382.885)" fill="#fff"/>
  </g>
</svg>
