<svg xmlns="http://www.w3.org/2000/svg" xmlns:xlink="http://www.w3.org/1999/xlink" width="39.125" height="39.125" viewBox="0 0 39.125 39.125">
  <defs>
    <filter id="Ellipse_4" x="0" y="0" width="39.125" height="39.125" filterUnits="userSpaceOnUse">
      <feOffset dx="1" dy="1" input="SourceAlpha"/>
      <feGaussianBlur stdDeviation="0.5" result="blur"/>
      <feFlood flood-opacity="0.102"/>
      <feComposite operator="in" in2="blur"/>
      <feComposite in="SourceGraphic"/>
    </filter>
  </defs>
  <g id="bell_icon_icon" transform="translate(-877.5 13.371)">
    <g transform="matrix(1, 0, 0, 1, 877.5, -13.37)" filter="url(#Ellipse_4)">
      <circle id="Ellipse_4-2" data-name="Ellipse 4" cx="18.062" cy="18.062" r="18.062" transform="translate(0.5 0.5)" fill="#0000ad"/>
    </g>
    <g id="Group_239" data-name="Group 239" transform="translate(-13.19 86.516)">
      <path id="Path_365" data-name="Path 365" d="M917.921-70.968H900.075a2.888,2.888,0,0,1-2.885-2.885v-.305a10.769,10.769,0,0,1,1.765-5.939c-.031-.343-.047-.678-.047-1.012,0-5.969,4.525-10.825,10.086-10.825s10.095,4.856,10.095,10.825c0,.334-.016.669-.047,1.012a10.766,10.766,0,0,1,1.764,5.939v.305A2.888,2.888,0,0,1,917.921-70.968Zm-17.731-3h17.616v-.19a7.785,7.785,0,0,0-1.526-4.657l-.363-.493.085-.606a8.511,8.511,0,0,0,.087-1.195c0-4.315-3.183-7.825-7.095-7.825s-7.086,3.51-7.086,7.825a8.66,8.66,0,0,0,.087,1.195l.085.606-.363.493a7.783,7.783,0,0,0-1.527,4.657Z" fill="#f8fafb"/>
      <circle id="Ellipse_8" data-name="Ellipse 8" cx="2.57" cy="2.57" r="2.57" transform="translate(906.429 -73.792)" fill="#f8fafb"/>
      <path id="Path_366" data-name="Path 366" d="M908.994-89.575a1.847,1.847,0,0,1-1.847-1.846v-2.248a1.848,1.848,0,0,1,1.847-1.847,1.847,1.847,0,0,1,1.847,1.847v2.248A1.846,1.846,0,0,1,908.994-89.575Z" fill="#f8fafb"/>
    </g>
  </g>
</svg>
