<svg xmlns="http://www.w3.org/2000/svg" width="155" height="155" viewBox="0 0 155 155">
  <g id="default-product-image" transform="translate(-303 -135)">
    <rect id="Rectangle_206" data-name="Rectangle 206" width="155" height="155" transform="translate(303 135)" fill="#606060" opacity="0.15"/>
    <g id="Group_300" data-name="Group 300" transform="translate(320.738 172.665)">
      <path id="Path_254" data-name="Path 254" d="M491.061,765.79q-1.8-2.165-3.539-4.382-1.629-2.082-3.186-4.219-1.931-2.657-3.791-5.362A46.994,46.994,0,0,1,477,745.735c-.248-.515-.44-1.057-.658-1.578,1.419-.575,2.773-1.071,4.077-1.671a55.753,55.753,0,0,0,6.567-3.4c1.385-.875,2.789-1.729,4.118-2.687a33.521,33.521,0,0,0,5.188-4.475c.792-.861,1.578-1.732,2.3-2.655a24.471,24.471,0,0,0,1.513-2.317,12.68,12.68,0,0,0,1.574-3.913,7.1,7.1,0,0,0-.153-3.84,5.463,5.463,0,0,0-2.026-2.678,9.027,9.027,0,0,0-4.166-1.578,17.263,17.263,0,0,0-4.37-.127c-1.04.116-2.086.2-3.119.367-.967.156-1.919.4-2.873.625-.713.167-1.427.335-2.125.555-1.063.334-2.118.7-3.17,1.076-1.169.416-2.348.81-3.489,1.292-1.769.747-3.527,1.521-5.255,2.356-1.653.8-3.276,1.66-4.887,2.54-1.393.761-2.757,1.57-4.12,2.382-1.308.78-2.612,1.567-3.891,2.393-1.607,1.039-3.2,2.1-4.776,3.183q-2.881,1.962-5.735,3.964c-1.348.942-2.676,1.907-4,2.877q-2.437,1.785-4.854,3.6-2.149,1.616-4.273,3.268l-1.156.9.674,2.539q2.113-1.582,4.236-3.149c.855-.632,1.713-1.264,2.578-1.882q2.926-2.1,5.866-4.176c.815-.581,1.623-1.169,2.443-1.741,1.3-.908,2.614-1.8,3.922-2.706s2.631-1.814,3.946-2.723,2.6-1.819,3.923-2.7c1.7-1.143,3.408-2.276,5.133-3.382,1.539-.986,3.1-1.93,4.66-2.885a3.159,3.159,0,0,1,.484-.19c-.033.161-.039.23-.06.3-.543,1.595-1.129,3.177-1.615,4.788-.5,1.655-.93,3.333-1.335,5.012q-.636,2.638-1.16,5.3c-.486,2.484-.956,4.973-1.368,7.47-.385,2.331-.7,4.672-1.023,7.013-.23,1.706-.427,3.417-.611,5.13-.246,2.274-.484,4.551-.691,6.829-.183,2.016-.348,4.033-.466,6.054-.139,2.355-.232,4.716-.31,7.076-.02.579-.024,1.161-.024,1.74l2.4-.636c.033-1.778.074-3.556.141-5.335.06-1.6.15-3.207.246-4.809.116-1.938.239-3.875.387-5.809.118-1.558.269-3.115.419-4.669.2-2.09.4-4.18.632-6.264.169-1.513.384-3.021.592-4.529.169-1.227.329-2.458.543-3.678.373-2.153.762-4.3,1.184-6.447.35-1.785.716-3.569,1.148-5.335.368-1.516.792-3.023,1.273-4.5.559-1.722,1.2-3.415,1.829-5.115.109-.3.176-.632.541-.8a60,60,0,0,1,7.688-3.077c1.13-.353,2.26-.708,3.41-.987a26.661,26.661,0,0,1,2.864-.5c.961-.125,1.931-.2,2.9-.25a12.125,12.125,0,0,1,4.054.45,6.552,6.552,0,0,1,2.629,1.425,4.659,4.659,0,0,1,1.377,2.963,5.709,5.709,0,0,1-.245,2.459,13.135,13.135,0,0,1-2.556,4.578,36.76,36.76,0,0,1-2.762,2.952,32.2,32.2,0,0,1-4.415,3.53c-1.344.9-2.687,1.809-4.076,2.634-1.354.8-2.745,1.549-4.16,2.236-2.039.987-4.11,1.907-6.177,2.833-.23.1-.27.193-.21.394a15.375,15.375,0,0,0,.586,1.874c.723,1.582,1.456,3.165,2.283,4.7a72.452,72.452,0,0,0,4.3,6.859q1.859,2.669,3.782,5.294c1,1.359,2.05,2.685,3.088,4.016q1.12,1.434,2.272,2.844,1.118,1.357,2.238,2.709l2.951-.782-.523-.6Q493.032,768.18,491.061,765.79Z" transform="translate(-429.061 -703.146)" fill="#fff"/>
      <path id="Path_255" data-name="Path 255" d="M457.049,824.727c.164-2.06.353-4.12.6-6.17.334-2.732.7-5.458,1.125-8.179.324-2.1.718-4.2,1.141-6.294q.671-3.31,1.461-6.591c.347-1.424.783-2.828,1.222-4.229.334-1.074.731-2.129,1.109-3.19.107-.3.245-.592.37-.891-.023-.01-.044-.023-.066-.033-.4.306-.822.592-1.2.923-1.111.951-2.211,1.917-3.312,2.882-1.035.91-2.072,1.822-3.095,2.745q-2.028,1.827-4.042,3.674-1.853,1.69-3.7,3.391c-1.144,1.054-2.283,2.116-3.429,3.171q-1.17,1.079-2.345,2.156l5.368,20.256a6.409,6.409,0,0,0,.155.8,6.323,6.323,0,0,0,.263.771,5.98,5.98,0,0,0,7.06,3.482,6.329,6.329,0,0,0,.756-.253c0-.138.009-.275.018-.41C456.677,830.063,456.838,827.393,457.049,824.727Z" transform="translate(-435.538 -753.092)" fill="#fff"/>
      <path id="Path_256" data-name="Path 256" d="M561.927,750.972a21.313,21.313,0,0,0,3.766-4.285,11.222,11.222,0,0,0,1.595-3.637,4.7,4.7,0,0,0-.052-2.488,3.544,3.544,0,0,0-2.671-2.438,8.223,8.223,0,0,0-3.54-.072,15.034,15.034,0,0,0-2.4.607c-1.089.378-2.151.84-3.215,1.288a.965.965,0,0,0-.514.427c-.559,1.427-1.157,2.85-1.6,4.317-.52,1.724-.945,3.479-1.315,5.241-.412,1.961-.723,3.946-1.069,5.92-.1.555-.153,1.116-.232,1.71.224-.09.389-.158.555-.222a36.049,36.049,0,0,0,4.642-2.174A32.423,32.423,0,0,0,561.927,750.972Z" transform="translate(-507.887 -718.689)" fill="#fff"/>
      <path id="Path_257" data-name="Path 257" d="M557.216,826.334c-.951-1.41-1.9-2.828-2.783-4.28-.911-1.486-1.76-3.008-2.611-4.529-.606-1.079-1.209-2.163-1.744-3.278a49.352,49.352,0,0,1-2.9-7.012c-.293-.972-.606-1.94-.824-2.929-.245-1.109-.392-2.241-.579-3.341a.635.635,0,0,0-.035.131c-.069.592-.139,1.189-.2,1.784-.254,2.495-.521,4.989-.75,7.486-.185,2.016-.357,4.035-.47,6.056-.18,3.246-.312,6.5-.449,9.746-.071,1.72-.109,3.44-.16,5.16-.035,1.153-.079,2.306-.1,3.461q-.011.551-.016,1.107l17.1-4.535c-.025-.033-.048-.066-.072-.1C559.452,829.649,558.334,827.99,557.216,826.334Z" transform="translate(-503.136 -761.021)" fill="#fff"/>
      <path id="Path_258" data-name="Path 258" d="M648.126,811.725a1.377,1.377,0,0,0-.411.023,4.338,4.338,0,0,0-.63.19.967.967,0,0,0-.629.617,4.788,4.788,0,0,0-.143,1c-.108,1.109-.216,2.217-.317,3.327a9.762,9.762,0,0,0-.07,1.209c.012.348.055.387.388.384a3.825,3.825,0,0,0,.49-.066c.184-.07.367-.127.54-.207a.822.822,0,0,0,.5-.616c.055-.3.115-.592.145-.891.11-1.1.211-2.21.311-3.316.038-.418.071-.837.092-1.256C648.4,811.863,648.319,811.74,648.126,811.725Z" transform="translate(-571.816 -768.239)" fill="#fff"/>
      <path id="Path_259" data-name="Path 259" d="M432.3,729.368c1.757-1.171,3.518-2.34,5.3-3.472q3.031-1.925,6.107-3.778c2.222-1.34,4.449-2.671,6.706-3.946,2.4-1.359,4.838-2.66,7.273-3.963,1.25-.667,2.515-1.3,3.79-1.919,1.472-.711,2.958-1.4,4.443-2.079l-40.111,10.633A5.959,5.959,0,0,0,425,721a5.756,5.756,0,0,0-.782.266,5.984,5.984,0,0,0-3.611,6.373,6.4,6.4,0,0,0,.139.683,6.247,6.247,0,0,0,.218.66l2.371,8.944a46.446,46.446,0,0,1,3.42-4.806C428.6,731.868,430.446,730.608,432.3,729.368Z" transform="translate(-420.547 -700.11)" fill="#fff"/>
      <path id="Path_260" data-name="Path 260" d="M715.454,726.271a11.929,11.929,0,0,0,0,1.865A13.02,13.02,0,0,1,715.454,726.271Zm.276,3.68.109.486.035.035c-.054-.17-.1-.346-.144-.521Zm1.473-10.362-.769,2.25a19.273,19.273,0,0,1,.94-2.149Z" transform="translate(-618.455 -706.403)" fill="#fff"/>
      <path id="Path_261" data-name="Path 261" d="M645.053,721.836a5.918,5.918,0,0,0-2-3.1,6.051,6.051,0,0,0-1.138-.734l-4.426-2.549a14.062,14.062,0,0,0-.649,2.766,9.96,9.96,0,0,0,.113,3.427,3.986,3.986,0,0,1,1.154,1.919,3.7,3.7,0,0,1,.128.816,4.03,4.03,0,0,1-.734,2.549,3.971,3.971,0,0,1-1.484,1.286A4.047,4.047,0,0,1,630.475,723a16.786,16.786,0,0,1-.19-5.611,21.034,21.034,0,0,1,1.4-5.28l-6.609-3.8a10.073,10.073,0,0,1,.592,1.861,16.807,16.807,0,0,1,.35,3.12,15.436,15.436,0,0,1-.575,4.2,23.93,23.93,0,0,1-2.3,5.7,26.949,26.949,0,0,1-2.4,3.726c-.723.913-1.447,1.822-2.2,2.708a34.892,34.892,0,0,1-4.756,4.519c-1.127.9-2.323,1.717-3.509,2.532a39.238,39.238,0,0,1-4.915,2.813,41.789,41.789,0,0,1-6.469,2.572c-.979.3-1.97.563-2.957.847l-1.217.342c.186.412.346.812.548,1.189a18.784,18.784,0,0,0,2.887,3.975c1.418,1.484,2.828,2.98,4.328,4.379s3.093,2.708,4.669,4.029c1.333,1.107,2.689,2.191,4.052,3.26,1.041.82,2.1,1.611,3.167,2.405.517.385,1.03.766,1.55,1.142l9.582-2.537c.132-.027.268-.058.4-.093s.263-.074.393-.121a5.924,5.924,0,0,0,3.163-2.518.04.04,0,0,0,.015-.019,6.392,6.392,0,0,0,.357-.684l0,0,11.493-24.618,1.041-2.234.894-1.9,1.111-2.386.051-.109.012-.019.23-.439.011-.023A5.956,5.956,0,0,0,645.053,721.836Zm-24.611,21.685a23.088,23.088,0,0,1-.322,2.572,2.488,2.488,0,0,1-.808,1.368,8.475,8.475,0,0,1-1.982,1.321c-.4.2-.8.389-1.212.567-.276.12-.559.226-.843.326-.424.148-.847.3-1.275.435-.548.175-1.1.334-1.644.5,0-.007,0-.013,0-.02-.291.078-.583.164-.874.23-.462.1-.929.206-1.395.3-.381.074-.766.136-1.151.179a9.969,9.969,0,0,1-2.176.081,3.118,3.118,0,0,1-1.271-.357.924.924,0,0,1-.47-.812,15.022,15.022,0,0,1,.116-2.4c.062-.625.113-1.249.2-1.874a3.487,3.487,0,0,1,.412-1.4,3.8,3.8,0,0,1,.894-.94,8.766,8.766,0,0,1,1.418-.905c.373-.194.754-.369,1.134-.536.458-.2.929-.381,1.391-.563.152-.058.3-.1.454-.152.385-.116.761-.241,1.146-.349.665-.19,1.325-.377,1.993-.552.346-.09.7-.167,1.052-.226.517-.093,1.038-.164,1.554-.241a8.968,8.968,0,0,1,1.585-.093,4.238,4.238,0,0,1,1.267.182,1.37,1.37,0,0,1,.766.482,1.188,1.188,0,0,1,.164.653,14.728,14.728,0,0,1-.118,2.226Zm15.15-8.342c-.287.393-.579.777-.87,1.17-.326.443-.649.886-.975,1.329-.349.474-.7.944-1.052,1.418-.3.4-.592.8-.886,1.2-.319.431-.637.862-.96,1.294-.164.225-.338.443-.493.672a.578.578,0,0,0-.078.268q-.151,1.562-.291,3.124c-.008.089-.058.1-.116.109-.579.156-1.158.307-1.733.462q-2.075.542-4.146,1.092a1.645,1.645,0,0,1-.164.043c.011-.152.019-.288.035-.424.051-.559.1-1.123.159-1.683.039-.392.078-.789.116-1.181a.256.256,0,0,0-.062-.206c-.47-.548-.933-1.1-1.4-1.647-.431-.5-.866-1.006-1.3-1.513-.412-.482-.828-.967-1.239-1.453a.988.988,0,0,1-.07-.1c.054-.019.1-.031.136-.043l5.832-1.542c.1-.027.144-.023.19.086.179.408.381.808.559,1.217.12.268.222.544.319.82.089.241.171.49.245.738a2.468,2.468,0,0,1,.054.323c.116-.245.214-.458.315-.672.12-.249.237-.505.365-.75.249-.47.5-.94.756-1.406.225-.412.458-.816.7-1.224a.26.26,0,0,1,.144-.089q2.1-.559,4.2-1.111c.536-.144,1.072-.284,1.609-.427.043-.012.081-.019.159-.039a.75.75,0,0,1-.056.141Z" transform="translate(-537.452 -698.829)" fill="#fff"/>
      <path id="Path_262" data-name="Path 262" d="M737.422,682.239c-5.342-4.946-15.192-3.034-21.957,4.27q-.367.4-.711.8c-.117.136-.23.272-.342.412s-.222.276-.329.416-.218.28-.323.42a24.2,24.2,0,0,0-1.442,2.17c-.089.148-.175.3-.256.447a21.792,21.792,0,0,0-1.1,2.273c-.047.113-.093.23-.14.342l-.058.152c-.07.182-.136.362-.2.544s-.124.365-.182.548-.116.365-.167.548-.1.365-.152.552c-.043.167-.086.334-.12.5-.047.2-.089.4-.128.6s-.066.369-.1.552-.054.369-.078.552c-.043.338-.074.672-.1,1a14.147,14.147,0,0,0,.023,2.23q.023.268.058.536c.015.14.035.276.058.416.008.055.016.113.027.171.054.3.116.594.19.882a1.482,1.482,0,0,0,.047.19c.035.128.07.253.109.377s.085.272.131.4c.016.054.035.109.054.16.1.276.21.544.334.808.039.086.078.171.12.253.051.1.1.206.156.3.116.222.245.439.377.649.051.081.1.164.159.245a1.528,1.528,0,0,0,.291-.047,2.236,2.236,0,0,0,.323-.124,1.646,1.646,0,0,0,.622-.54,1.8,1.8,0,0,0,.26-.544c-.066-.1-.128-.21-.19-.318a7.579,7.579,0,0,1-.362-.711c-.031-.058-.058-.124-.085-.19l-.058-.14c-.031-.074-.058-.148-.086-.221-.07-.187-.136-.377-.194-.571a1.353,1.353,0,0,1-.039-.131c-.039-.128-.074-.257-.1-.389-.039-.167-.078-.338-.109-.513-.023-.113-.043-.226-.062-.338-.023-.167-.047-.334-.066-.505-.019-.152-.031-.3-.043-.458a12.234,12.234,0,0,1-.023-1.317c0-.1.008-.206.016-.307,0-.078,0-.16.011-.241.008-.109.016-.218.027-.327.015-.147.031-.3.051-.447.035-.276.078-.548.128-.824.023-.136.051-.276.081-.416s.058-.272.089-.411a.153.153,0,0,1,.011-.039c.023-.109.051-.218.082-.329.031-.131.07-.268.109-.4s.078-.268.12-.4c.085-.272.175-.544.276-.815,0,0,0-.012,0-.016.144-.392.3-.781.478-1.17.062-.152.128-.3.2-.447.078-.171.164-.342.249-.509l.011-.024c0-.008.008-.012.011-.019.1-.205.21-.407.323-.61a.073.073,0,0,1,.012-.019c.113-.2.23-.4.349-.6.019-.031.035-.058.054-.089.12-.2.241-.393.369-.587.159-.241.323-.481.493-.719.12-.175.249-.349.381-.521s.276-.362.42-.54l.058-.07q.2-.25.408-.49c.194-.23.395-.455.606-.68,3.851-4.158,8.75-6.423,12.977-6.423a10.133,10.133,0,0,1,3.4.556,8.118,8.118,0,0,1,2.837,1.7c4.554,4.219,3.349,12.956-2.685,19.47a19.867,19.867,0,0,1-10.32,6.135c-.031.008-.062.012-.093.019l-.583,1.247-.408.866c.482-.051.975-.128,1.473-.23a21.848,21.848,0,0,0,11.353-6.718,20.989,20.989,0,0,0,5.937-13.821A11.151,11.151,0,0,0,737.422,682.239Z" transform="translate(-614.489 -679.49)" fill="#fff"/>
      <path id="Path_263" data-name="Path 263" d="M737.422,682.239c-5.342-4.946-15.192-3.034-21.957,4.27q-.367.4-.711.8c-.117.136-.23.272-.342.412s-.222.276-.329.416-.218.28-.323.42a24.2,24.2,0,0,0-1.442,2.17c-.089.148-.175.3-.256.447a21.792,21.792,0,0,0-1.1,2.273c-.047.113-.093.23-.14.342l-.058.152c-.07.182-.136.362-.2.544s-.124.365-.182.548c-.015.047-.031.089-.047.136-.043.136-.086.276-.12.412-.055.182-.1.365-.152.552-.043.167-.086.334-.12.5-.047.2-.089.4-.128.6s-.066.369-.1.552-.054.369-.078.552c-.043.338-.074.672-.1,1a14.147,14.147,0,0,0,.023,2.23q.023.268.058.536c.015.14.035.276.058.416.008.055.016.113.027.171.051.3.113.594.19.882a1.482,1.482,0,0,0,.047.19c.035.128.07.253.109.377s.085.272.131.4c.016.054.035.109.054.16.1.276.21.544.334.808.039.086.078.171.12.253.051.1.1.205.156.3.116.221.245.439.377.649.051.081.1.164.159.245a1.528,1.528,0,0,0,.291-.047,2.279,2.279,0,0,0,.323-.124,1.643,1.643,0,0,0,.622-.54,1.8,1.8,0,0,0,.26-.544c-.066-.1-.128-.21-.19-.318a7.624,7.624,0,0,1-.362-.711c-.031-.062-.058-.124-.085-.19l-.058-.14c-.027-.074-.058-.148-.086-.221-.07-.187-.136-.377-.194-.571a1.323,1.323,0,0,1-.039-.132c-.039-.128-.074-.256-.1-.389-.039-.167-.078-.338-.109-.513-.023-.113-.043-.225-.062-.338-.023-.167-.047-.334-.066-.505-.019-.152-.031-.3-.043-.458a12.309,12.309,0,0,1-.023-1.317c0-.1.008-.2.016-.307,0-.078,0-.16.011-.241.008-.109.016-.218.027-.327.015-.148.031-.3.051-.447.035-.276.078-.548.128-.824.023-.14.051-.276.081-.416s.058-.272.089-.412a.155.155,0,0,1,.011-.039c.023-.109.051-.218.082-.329.031-.131.07-.268.109-.4s.078-.268.12-.4c.085-.272.175-.544.276-.816,0,0,0-.012,0-.016.144-.392.3-.781.478-1.169.062-.148.128-.3.2-.447.078-.171.164-.338.249-.509l.011-.023c0-.008.008-.012.011-.019.1-.206.214-.408.323-.61a.085.085,0,0,1,.012-.019c.113-.2.23-.4.349-.6.019-.031.035-.058.054-.089.12-.2.241-.393.369-.587.159-.241.323-.482.493-.719.12-.175.249-.349.381-.521s.276-.362.42-.54l.058-.07q.2-.245.408-.49c.194-.23.395-.455.606-.68,3.851-4.158,8.75-6.423,12.977-6.423a10.132,10.132,0,0,1,3.4.556,8.118,8.118,0,0,1,2.837,1.7c4.554,4.219,3.349,12.956-2.685,19.47a19.87,19.87,0,0,1-10.32,6.135c-.031.008-.062.012-.093.019l-.583,1.247-.408.866c.482-.051.975-.128,1.473-.23a21.848,21.848,0,0,0,11.353-6.718,20.989,20.989,0,0,0,5.937-13.821A11.151,11.151,0,0,0,737.422,682.239Z" transform="translate(-614.489 -679.49)" fill="#fff"/>
    </g>
  </g>
</svg>
