<svg id="facebook_link_white" xmlns="http://www.w3.org/2000/svg" width="16.705" height="16.705" viewBox="0 0 16.705 16.705">
  <g id="Group_33" data-name="Group 33">
    <g id="Group_31" data-name="Group 31">
      <path id="Path_18" data-name="Path 18" d="M152.085,702.535a8.352,8.352,0,1,1,8.352-8.352A8.362,8.362,0,0,1,152.085,702.535Zm0-15.807a7.455,7.455,0,1,0,7.455,7.455A7.463,7.463,0,0,0,152.085,686.727Z" transform="translate(-143.733 -685.83)" fill="#fff"/>
    </g>
    <g id="Group_32" data-name="Group 32" transform="translate(6.017 3.346)">
      <path id="Path_19" data-name="Path 19" d="M148.03,692.695v4.841a.127.127,0,0,0,.127.127h1.8a.125.125,0,0,0,.125-.127v-4.92h1.3a.125.125,0,0,0,.125-.114l.127-1.484a.127.127,0,0,0-.127-.136H150.08V689.83a.447.447,0,0,1,.447-.447h1a.127.127,0,0,0,.127-.125v-1.484a.126.126,0,0,0-.127-.125h-1.7a1.8,1.8,0,0,0-1.8,1.8v1.429h-.9a.126.126,0,0,0-.125.125v1.484a.125.125,0,0,0,.125.125h.9Z" transform="translate(-147.006 -687.65)" fill="#fff" fill-rule="evenodd"/>
    </g>
  </g>
</svg>
