<svg xmlns="http://www.w3.org/2000/svg" width="16.596" height="16.594" viewBox="0 0 16.596 16.594">
  <g id="instagram_link_white" transform="translate(0 0)">
    <g id="Group_40" data-name="Group 40">
      <path id="Path_22" data-name="Path 22" d="M163.214,702.538a8.3,8.3,0,1,1,8.3-8.3A8.307,8.307,0,0,1,163.214,702.538Zm0-15.807a7.51,7.51,0,1,0,7.51,7.51A7.52,7.52,0,0,0,163.214,686.731Zm2.8,4.144a.614.614,0,1,0,.614.614A.613.613,0,0,0,166.012,690.875Zm-2.73.787a2.579,2.579,0,1,0,2.579,2.579A2.581,2.581,0,0,0,163.282,691.662Zm0,4.232a1.653,1.653,0,1,1,1.653-1.653A1.655,1.655,0,0,1,163.282,695.894Zm5.2-3.8a3.146,3.146,0,0,0-3.146-3.146h-4.153a3.146,3.146,0,0,0-3.146,3.146v4.153a3.146,3.146,0,0,0,3.146,3.146h4.153a3.146,3.146,0,0,0,3.146-3.146Zm-.985,4.153a2.16,2.16,0,0,1-2.16,2.16h-4.153a2.16,2.16,0,0,1-2.16-2.16V692.1a2.16,2.16,0,0,1,2.16-2.16h4.153a2.16,2.16,0,0,1,2.16,2.16Z" transform="translate(-154.915 -685.944)" fill="#fff"/>
    </g>
  </g>
</svg>
