<svg xmlns="http://www.w3.org/2000/svg" width="53.645" height="13.911" viewBox="0 0 53.645 13.911">
  <g id="roy-plaza-store-bakebites-bakeshop-white" transform="translate(0 0)">
    <path id="Path_351" data-name="Path 351" d="M1505.5,402.762c-.02-.026-.049-.051-.022-.1l.314-.029c0-.047.01-.08.009-.114q-.04-1.606-.083-3.212c0-.012-.012-.024-.018-.036a.128.128,0,0,0-.034-.023.614.614,0,0,0-.1-.019l-2.542-.194a.037.037,0,0,0-.019.007.282.282,0,0,0-.024.018c-.041.121.008.267-.068.4a.619.619,0,0,1-.1-.026,3.151,3.151,0,0,0-.915-.25,2.968,2.968,0,0,0-.988.052,3.728,3.728,0,0,0-1.164.476c-.047.028-.094.054-.135.077a.234.234,0,0,1-.05-.019c-.044-.034-.086-.069-.128-.1a3.543,3.543,0,0,0-1.895-.817,3.819,3.819,0,0,0-2.062.328,4.83,4.83,0,0,0-.954.58c-.041.032-.075.086-.154.063-.007-.026-.016-.057-.022-.089-.048-.258-.094-.516-.145-.774-.029-.144-.042-.151-.188-.175-.429-.07-.859-.139-1.288-.21-.4-.067-.8-.136-1.205-.2a.381.381,0,0,0-.1.012l-.355.915a.309.309,0,0,1-.107-.155,2.186,2.186,0,0,0-.795-1.012,1.959,1.959,0,0,0-1.737-.283,1.93,1.93,0,0,0-1.152.952,2.818,2.818,0,0,0-.326,1,.6.6,0,0,1-.044.223c-.093,0-.145-.06-.207-.1a2.184,2.184,0,0,0-1.549-.306,3.538,3.538,0,0,0-.617.171.635.635,0,0,1-.111.02.385.385,0,0,1-.026-.214c0-.47,0-.94,0-1.41,0-.06.018-.126-.054-.181-.057,0-.126,0-.194,0l-1.2.036-2.735.078c-.046,0-.092.012-.139.017a.943.943,0,0,0-.016.317c0,.1,0,.207.007.311s.01.207.011.311a1.173,1.173,0,0,1,0,.3c-.083.036-.129-.023-.18-.049a3.674,3.674,0,0,0-1.112-.38,3.34,3.34,0,0,0-1.771.178,3.115,3.115,0,0,0-1.5,1.163.207.207,0,0,1-.24.1c-.285-.052-.573-.089-.86-.131-.424-.063-.847-.126-1.271-.19a.294.294,0,0,1-.077-.039c.008-.156.015-.307.023-.458s.022-.317.026-.476a1.491,1.491,0,0,0,0-.463c-.077-.006-.151-.015-.226-.018l-2.444-.1c-.387-.016-.773-.034-1.16-.049-.06,0-.125-.02-.179.043,0,.041-.008.089-.011.137-.019.283-.037.565-.056.848,0,.032,0,.071-.052.079a.249.249,0,0,1-.042-.037,1.137,1.137,0,0,0-.458-.346,2.619,2.619,0,0,0-.881-.217,8.03,8.03,0,0,0-2.852.273.59.59,0,0,1-.107.012c-.018-.014-.025-.018-.028-.023-.024-.049-.049-.1-.072-.149a5.2,5.2,0,0,0-.676-1.137,6.541,6.541,0,0,0-4.292-2.427,6.967,6.967,0,0,0-1.054-.062,6.586,6.586,0,0,0-4.35,1.617.844.844,0,0,0-.072.081.626.626,0,0,0,.1.057,1.554,1.554,0,0,1,.49.305,2.792,2.792,0,0,1,.824,1.223,2.387,2.387,0,0,1,.1,1.225,2.952,2.952,0,0,1-.546,1.218,4.989,4.989,0,0,1-1.066,1.037,9.819,9.819,0,0,1-1.68.978c-.055.026-.107.056-.159.083,0,.049,0,.083,0,.117,0,.055.006.111.015.165a5.556,5.556,0,0,0,.375,1.332,5.866,5.866,0,0,0,1.925,2.421,7.081,7.081,0,0,0,3.424,1.364,6.633,6.633,0,0,0,2.549-.17,5.96,5.96,0,0,0,2.95-1.79c.194-.215.362-.453.542-.68.029-.036.044-.089.111-.084a.259.259,0,0,1,.038.043.908.908,0,0,0,.43.374,1.831,1.831,0,0,0,.514.155,4.7,4.7,0,0,0,2.129-.175c.092-.029.182-.059.289-.094a1.379,1.379,0,0,0,.893.513,1.359,1.359,0,0,0,1.022-.223.462.462,0,0,1,.085.243c.03.135.05.271.078.407.022.106.046.125.153.131l.869.048c1,.054,2,.107,3,.165a1.035,1.035,0,0,0,.386-.051l3.133-1.007a.457.457,0,0,1,.285-.01,3.819,3.819,0,0,0,.773.14,4.271,4.271,0,0,0,1.46-.113,3.921,3.921,0,0,0,1.644-.841.5.5,0,0,1,.1-.05c.061.426.089.839.132,1.25s.082.839.125,1.258.074.822.129,1.241c.065,0,.119.007.173.007.27,0,.539,0,.808-.008.643-.018,1.284-.043,1.927-.059,1.222-.03,2.445-.055,3.668-.083l4.352-.1q2.321-.056,4.642-.113c1.133-.026,2.266-.049,3.4-.075.06,0,.125.019.185-.045.007-.065.015-.14.021-.216q.078-.971.156-1.942a1.029,1.029,0,0,1,.028-.134c.228-.041.45-.022.671-.071a1.723,1.723,0,0,0,.011-.336.547.547,0,0,1,.031-.119l.338.053a4.323,4.323,0,0,0,1.586-.024,2.7,2.7,0,0,0,1.4-.757,2.451,2.451,0,0,0,.64-1.211A1.6,1.6,0,0,0,1505.5,402.762Zm-41.439-.626a5.636,5.636,0,0,1-3.149,4.914,5.387,5.387,0,0,1-7.245-2.472,5.516,5.516,0,0,1-.379-1.028c-.028-.11.036-.177.142-.149.033.009.063.028.1.038a.774.774,0,0,0,.93-.349c.032-.052.063-.1.1-.165a.906.906,0,0,0,.963-.329.509.509,0,0,0,.14-.5.228.228,0,0,1,.006-.055c.059-.031.126-.065.191-.1a.636.636,0,0,0,.343-.444.93.93,0,0,0-.019-.411c-.025-.093-.052-.185-.081-.286.082-.072.167-.14.244-.217a.678.678,0,0,0,.174-.3c.029-.105.045-.214.066-.316.021-.007.035-.018.045-.014a1.156,1.156,0,0,0,.389.039h.062c.146.007.167.021.192.162.037.211.068.423.1.634.058.368.116.737.172,1.106q.108.707.213,1.414c.02.137.016.144-.109.21-.177.093-.352.192-.535.273a.261.261,0,0,0-.169.276c.006.221,0,.442.011.663,0,.143.028.171.17.179a15.29,15.29,0,0,0,1.677.071c.552-.027,1.1-.061,1.656-.092.09-.005.179-.014.269-.019a.518.518,0,0,0,.221-.044.223.223,0,0,1,.1-.02,2.875,2.875,0,0,0,.868-.184,1.631,1.631,0,0,0,.848-.666,1.118,1.118,0,0,0,.19-.563,2.3,2.3,0,0,0-.115-.878,1.588,1.588,0,0,0-.929-.974.4.4,0,0,1-.188-.109c.023-.05.049-.1.075-.159a1.779,1.779,0,0,0,.207-.795,1.369,1.369,0,0,0-.6-1.208,3.952,3.952,0,0,0-.89-.438,4.353,4.353,0,0,0-.86-.226,3.967,3.967,0,0,0-1.218-.028,1.063,1.063,0,0,0-.142.029,1.4,1.4,0,0,1-.47.043c-.344-.014-.69,0-1.035,0h-.111a1.256,1.256,0,0,0-.133-.407.8.8,0,0,0-.32-.242c-.006-.023-.015-.038-.011-.048a.355.355,0,0,0-.165-.428l-.245-.178a.71.71,0,0,1,.083-.073,5.439,5.439,0,0,1,1.734-.658,5.255,5.255,0,0,1,1.237-.1,5.375,5.375,0,0,1,4.868,3.562A5.485,5.485,0,0,1,1464.058,402.136Zm-7.784-2.819.135-.1c.018.015.035.022.036.031a.552.552,0,0,1-.011.266Zm3.228,2.843a2.6,2.6,0,0,1,1.031.182,1.276,1.276,0,0,1,.284.166.456.456,0,0,1,.175.421.66.66,0,0,1-.483.629c-.263.082-.528.157-.794.23a.812.812,0,0,1-.355.019,4.612,4.612,0,0,1-.3-1.58A2.952,2.952,0,0,1,1459.5,402.161Zm-.347-1.724c.008-.165.016-.331.025-.5,0-.048.013-.1.018-.144a.141.141,0,0,1,.134-.135.988.988,0,0,1,.267-.006,1.625,1.625,0,0,1,.777.367c.01.009.02.019.03.029a.429.429,0,0,1-.031.711,1.429,1.429,0,0,1-.953.344.537.537,0,0,1-.143-.021.154.154,0,0,1-.118-.152q0-.248,0-.5Zm31.26,1.424c.038-.218.078-.435.117-.652a.2.2,0,0,1,.135-.169.766.766,0,0,1,.342-.069.554.554,0,0,0,.262-.042q.21-.086.419-.176a.232.232,0,0,0,.138-.191,4.533,4.533,0,0,0,.057-.97.335.335,0,0,1,.023-.21,1.238,1.238,0,0,1,.324,0c.261.02.523.042.784.069a1.042,1.042,0,0,1,.219.057.2.2,0,0,1,.143.222c-.012.207-.018.414-.022.621a.758.758,0,0,0,.012.281.29.29,0,0,0,.2.056c.151.016.3.027.453.046a.668.668,0,0,1,.158.045.171.171,0,0,1,.116.177c0,.311-.007.622-.011.933a.469.469,0,0,1-.021.09h-.12c-.048,0-.1,0-.145,0l-.848.042-.041,0c-.085.011-.113.031-.125.112a2.789,2.789,0,0,0-.051.39c-.007.373-.011.746,0,1.119a2.888,2.888,0,0,0,.108.695.683.683,0,0,0,.337.4.068.068,0,0,0,.1-.036.6.6,0,0,0,.04-.159c.011-.207.023-.414.023-.62,0-.138-.02-.275-.03-.413,0-.047,0-.094,0-.143.273-.112.533-.223.8-.324.042-.016.1.013.154.021.046-.053.027-.118.03-.178a5.382,5.382,0,0,1,.093-.885,3.14,3.14,0,0,1,.318-.894,2.068,2.068,0,0,1,1.323-1.023,2.918,2.918,0,0,1,1.232-.081,2.872,2.872,0,0,1,1.145.458,1.536,1.536,0,0,1,.465.549,3.145,3.145,0,0,1,.287.73,3.663,3.663,0,0,1,.129,1.024.588.588,0,0,1-.06.29c-.036.008-.075.02-.115.026a7.883,7.883,0,0,1-1.219.079,4.708,4.708,0,0,0-1.026.123c-.121.026-.245.041-.367.062a.312.312,0,0,0-.1.022.088.088,0,0,0-.033.068.164.164,0,0,0,.032.074,1.152,1.152,0,0,0,.469.427.708.708,0,0,0,.464.058,2.482,2.482,0,0,0,.738-.263c.182-.1.362-.2.543-.3.053-.029.109-.055.17-.085a.682.682,0,0,1,.1.107q.179.3.351.61a.269.269,0,0,1-.046.341,3.071,3.071,0,0,1-1.519,1,3.529,3.529,0,0,1-.593.084c-.185.014-.373,0-.559.008a1.242,1.242,0,0,1-.407-.061,2.669,2.669,0,0,1-1.511-1.191c-.057-.094-.1-.2-.148-.3-.014-.028-.017-.069-.073-.067a.151.151,0,0,0-.017.048.656.656,0,0,0,.008.124,1.559,1.559,0,0,1-.137.928c-.022.05-.045.1-.065.152a1.081,1.081,0,0,1-.256.4,2.3,2.3,0,0,0-.2.235.376.376,0,0,1-.2.133,2.069,2.069,0,0,1-.692.11c-.172-.009-.345,0-.518,0a1.643,1.643,0,0,1-1.468-1.039,2,2,0,0,1-.14-.729c0-.221.018-.441.038-.661.024-.268.058-.536.089-.8.024-.213.051-.425.073-.638.012-.108-.017-.145-.12-.145s-.178.017-.268.021a.961.961,0,0,1-.2-.007A.1.1,0,0,1,1490.416,401.861Zm-2.481-2.129a1.636,1.636,0,0,1,.406-.618.7.7,0,0,1,.8-.17c.159.066.317.137.469.218a.729.729,0,0,1,.356.464,1.215,1.215,0,0,1,.058.36,1.729,1.729,0,0,1-.111.656.725.725,0,0,1-.625.474,1.516,1.516,0,0,1-.887-.135.893.893,0,0,1-.514-.637A1.1,1.1,0,0,1,1487.935,399.731Zm-.025,4.3c-.016-.22-.034-.441-.054-.661-.013-.144-.029-.289-.045-.433,0-.041-.013-.08-.024-.147l-.687-.011a.625.625,0,0,1-.022-.145q.031-.34.073-.679c.015-.116.045-.231.059-.347a.3.3,0,0,1,.28-.286,2.253,2.253,0,0,1,.308-.033,11.813,11.813,0,0,1,1.243.039c.117.01.234.016.351.028a.834.834,0,0,1,.162.031.213.213,0,0,1,.167.188c.016.13.052.259.055.389.019.663.031,1.326.042,1.989,0,.138-.01.276-.012.414,0,.1.04.14.139.128.048-.006.095-.021.143-.027a.931.931,0,0,1,.164-.013.146.146,0,0,1,.161.13.782.782,0,0,1,.034.183c.011.283.018.566.025.849a.529.529,0,0,1-.014.089.829.829,0,0,1-.12.017c-.1,0-.207,0-.311-.009-.545-.027-1.09-.052-1.635-.083a4.826,4.826,0,0,1-1.063-.159c-.078-.023-.156-.05-.221-.071a.207.207,0,0,1-.017-.2,1.7,1.7,0,0,0,.1-.486.349.349,0,0,1,.276-.344c.093-.026.185-.057.276-.089C1487.906,404.227,1487.923,404.2,1487.91,404.029Zm-17.969.631a.814.814,0,0,1-.292.555,1.987,1.987,0,0,1-.855.446,3.358,3.358,0,0,1-.347.053.4.4,0,0,1-.292-.079c-.152-.108-.3-.219-.452-.329-.182-.133-.148-.179-.45-.089a.769.769,0,0,0-.08.021,2.863,2.863,0,0,1-1.056.177c-.131,0-.262.012-.393.022a1.1,1.1,0,0,1-1.02-.477,2.118,2.118,0,0,1-.309-.583,1.543,1.543,0,0,1,0-.917.45.45,0,0,1,.142-.2,2.412,2.412,0,0,1,.762-.49c.223-.093.453-.167.679-.251.252-.094.5-.191.756-.283a.473.473,0,0,0,.312-.562.288.288,0,0,0-.044-.114.261.261,0,0,0-.066-.079,1.3,1.3,0,0,0-1-.29c.037.067.053.1.076.135a.892.892,0,0,1,.131.3.442.442,0,0,1-.078.392,1.487,1.487,0,0,1-.386.371.507.507,0,0,1-.129.065,1.253,1.253,0,0,1-.634.036.945.945,0,0,1-.706-.608,1.183,1.183,0,0,1-.068-.591.685.685,0,0,1,.194-.382,1.432,1.432,0,0,1,.418-.3,3.626,3.626,0,0,1,.759-.271,6.218,6.218,0,0,1,1.618-.211,2.028,2.028,0,0,1,.651.11,1.2,1.2,0,0,1,.726.666,2.165,2.165,0,0,1,.193.843c.009.4,0,.8,0,1.2,0,.318,0,.636-.006.953a.31.31,0,0,0,.1.26c.088.075.165.056.2-.058a.817.817,0,0,0,.023-.1c.019-.095.04-.189.056-.285a.362.362,0,0,1,.237-.311c.1-.036.186-.092.28-.133a.1.1,0,0,1,.149.064A3.3,3.3,0,0,1,1469.942,404.66Zm6.156.991c0,.012-.013.023-.025.043a9.4,9.4,0,0,1-.968.269c-.222.052-.447.091-.667.145-.14.034-.277.085-.414.13-.04.013-.077.03-.116.044a.152.152,0,0,1-.186-.046,3.034,3.034,0,0,1-.439-.656c.073-.189.263-.3.341-.479a11.767,11.767,0,0,0-1.1-.827.186.186,0,0,0-.064-.008.359.359,0,0,0,.028.242c.077.236.159.47.239.706a2.481,2.481,0,0,0,.31.629,1.214,1.214,0,0,1,.113.2.106.106,0,0,1-.1.162.584.584,0,0,1-.062,0q-1.1,0-2.2-.009c-.138,0-.276-.011-.414-.018a1.145,1.145,0,0,1-.124-.012.247.247,0,0,1-.241-.241c-.012-.2-.005-.4,0-.6a.2.2,0,0,1,.126-.176c.148-.074.293-.155.442-.228a.165.165,0,0,0,.1-.2c-.04-.287-.07-.576-.1-.864a11.182,11.182,0,0,1-.08-1.219c0-.525-.006-1.05-.009-1.575a.368.368,0,0,0-.1-.311c-.14-.034-.3.008-.433-.068a3.711,3.711,0,0,1,.13-1.217.6.6,0,0,1,.257-.055,6.414,6.414,0,0,1,1.445.085c.277.054.385.145.4.479.017.282.061.563.1.844.052.411.108.821.163,1.232.038.287.077.573.118.876.038-.014.068-.016.083-.032.215-.234.427-.47.64-.707a.39.39,0,0,0,.035-.064.746.746,0,0,0-.082-.083c-.116-.087-.236-.169-.352-.255-.043-.032-.083-.07-.123-.1a.223.223,0,0,1,.021-.067c.128-.154.258-.306.388-.458.022-.026.046-.051.069-.078a.186.186,0,0,1,.2-.066c.249.056.5.1.75.156.452.1.9.2,1.355.3a.493.493,0,0,1,.1.027.139.139,0,0,1,.08.153c-.069.238-.143.475-.216.712,0,.005-.01.008-.022.017-.153-.043-.31-.092-.469-.13-.368-.088-.306-.1-.508.179-.146.2-.28.411-.416.619a2.054,2.054,0,0,0-.1.181.123.123,0,0,0,.023.152c.023.025.047.051.072.075.417.4.835.805,1.251,1.211a.263.263,0,0,0,.222.086c.089-.01.178-.02.266-.035a.217.217,0,0,1,.208.062.151.151,0,0,1,.047.088C1476.106,405.127,1476.1,405.389,1476.1,405.651Zm4.772-2.856c0,.027,0,.055-.006.083-.019.163-.046.179-.2.2a9.164,9.164,0,0,1-1.137.073,4.091,4.091,0,0,0-.945.1c-.173.042-.353.059-.53.088-.092.015-.12.066-.073.144a1.091,1.091,0,0,0,.636.5.693.693,0,0,0,.328,0,2.459,2.459,0,0,0,.717-.26c.17-.092.338-.188.507-.282l.2-.11a.716.716,0,0,1,.108.112q.179.3.349.611a.272.272,0,0,1-.045.341,3.093,3.093,0,0,1-1.539,1,3.253,3.253,0,0,1-.573.077c-.186.013-.373,0-.559.008a1.232,1.232,0,0,1-.407-.061,2.686,2.686,0,0,1-1.49-1.156,2.111,2.111,0,0,1-.333-1.158,5.058,5.058,0,0,1,.169-1.394,2.9,2.9,0,0,1,.24-.594,2.064,2.064,0,0,1,1.332-1.039,2.945,2.945,0,0,1,1.191-.086,2.877,2.877,0,0,1,1.169.451,1.58,1.58,0,0,1,.541.669A3.612,3.612,0,0,1,1480.87,402.8Zm1.29,2.531c-.049-.37-.1-.74-.139-1.11-.034-.288-.06-.577-.09-.866-.034-.33-.063-.66-.1-.989-.049-.418-.1-.836-.16-1.253-.024-.185-.056-.369-.088-.552-.017-.095-.041-.188-.062-.284-.179-.061-.364.006-.541-.045a.287.287,0,0,1-.031-.073,5.936,5.936,0,0,1,.017-.866.377.377,0,0,1,.218-.054c.2-.011.4-.021.6-.02a6.189,6.189,0,0,0,.95-.059,3.972,3.972,0,0,1,.517-.019.249.249,0,0,1,.073.02,2.225,2.225,0,0,1,.112.613c.01.407.013.815.021,1.222a.3.3,0,0,0,.039.207.372.372,0,0,0,.092-.033,1.866,1.866,0,0,1,.789-.3c.23-.039.466-.048.7-.069a1.525,1.525,0,0,1,.868.225,1.647,1.647,0,0,1,.8.961,5.173,5.173,0,0,1,.244.941,2.941,2.941,0,0,1-.121,1.391,1.615,1.615,0,0,1-.564.752,3.188,3.188,0,0,1-1.094.526,2.755,2.755,0,0,1-.488.087,1.16,1.16,0,0,1-.663-.12c-.128-.067-.251-.144-.376-.217l-.158-.095c-.078.246-.077.478-.146.69a7.494,7.494,0,0,1-1.16-.3C1482.2,405.543,1482.175,405.436,1482.16,405.327Zm2.1,3.169a1.074,1.074,0,0,1-.311.1,5.625,5.625,0,0,1-1.2.069c-.041,0-.083,0-.124-.009-.07-.01-.1-.037-.1-.106s0-.137,0-.216l.258-.172a4.426,4.426,0,0,0-.084-.573,4.96,4.96,0,0,0-.1-.552l-.145-.027c-.083-.017-.105-.038-.109-.124a.6.6,0,0,1,.02-.276.546.546,0,0,1,.112-.03c.1-.005.193,0,.29-.006a1.319,1.319,0,0,0,.184-.016,1.462,1.462,0,0,1,1,.183.473.473,0,0,1,.219.571,1.322,1.322,0,0,1-.059.163l.139.09a.6.6,0,0,1,.261.609A.437.437,0,0,1,1484.265,408.5Zm2.561-.058a1.21,1.21,0,0,0,0,.16,1.908,1.908,0,0,1-.478.081c-.155.029-.31.06-.47.092a.876.876,0,0,1-.1-.36l.163-.126c.028-.087-.032-.136-.061-.2a.815.815,0,0,0-.142-.006c-.109.013-.218.033-.327.053a.3.3,0,0,0-.078.026.112.112,0,0,0-.078.11.1.1,0,0,0,.089.1.366.366,0,0,1,.041.007c.122.035.129.046.1.174-.011.059-.027.118-.039.172a2.609,2.609,0,0,1-.995-.081c.019-.069.033-.128.052-.185a.173.173,0,0,1,.166-.132c.107,0,.155-.064.18-.164.076-.3.16-.6.24-.9.05-.186.1-.373.149-.559.014-.052.035-.1.055-.16a3.436,3.436,0,0,1,.622.012c.053,0,.081.045.1.094.081.234.165.468.245.7.064.189.118.382.185.57a2.834,2.834,0,0,0,.123.262.3.3,0,0,0,.058.028C1486.808,408.233,1486.852,408.236,1486.825,408.438Zm5.961.138a.872.872,0,0,1-.469-.026,1,1,0,0,0-.107-.026l-.072.159a.668.668,0,0,1-.119-.011c-.133-.036-.264-.08-.4-.115a.627.627,0,0,0-.182-.023c-.545.022-1.091.047-1.636.071a.418.418,0,0,1-.322-.074c0-.043-.006-.09-.01-.137a.174.174,0,0,1,.118-.2c.026-.01.052-.019.077-.031a.1.1,0,0,0,.064-.1q-.036-.537-.076-1.074c0-.006-.008-.011-.022-.03l-.295-.053-.143.107-.184-.117c-.184.14-.36.281-.534.441a.509.509,0,0,0,.061.089,2.21,2.21,0,0,1,.354.4.378.378,0,0,0,.262.183c.012,0,.022.016.041.03a1.009,1.009,0,0,1-.012.4.1.1,0,0,1-.1.084h-.021l-.808,0a.176.176,0,0,1-.045-.015.59.59,0,0,1-.031-.3c0-.029.031-.059.053-.084a.87.87,0,0,1,.081-.075.5.5,0,0,0-.066-.082c-.114-.09-.228-.179-.346-.264a.547.547,0,0,0-.121-.047.588.588,0,0,0,0,.339c.059,0,.113,0,.166,0a.077.077,0,0,1,.083.075c0,.1,0,.205,0,.315a.689.689,0,0,1-.124.033c-.262.018-.524.032-.786.048-.021,0-.042,0-.062,0-.106,0-.159-.033-.176-.107a.189.189,0,0,1,.1-.242c.031-.015.065-.024.1-.038s.048-.026.07-.038a3.68,3.68,0,0,0-.044-1.074c-.055-.054-.128-.028-.194-.034-.092-.009-.119-.037-.119-.132,0-.042.008-.083.007-.124-.005-.189.02-.2.214-.224.232-.032.464-.067.7-.109s.28-.017.344.207c.01.032.014.066.021.1a1.015,1.015,0,0,1-.229.1c-.086.037-.1.068-.084.162a1.456,1.456,0,0,0,.043.16.273.273,0,0,0,.041.057,3.085,3.085,0,0,0,.38-.24c.127-.07.252-.143.385-.219l-.1-.181c.15-.122.235-.137.374-.046s.244.18.366.27c.031.023.065.04.109.066l.043-.187a.7.7,0,0,1,.288-.07l1.4-.125a.507.507,0,0,1,.249.01c.049.082.018.175.028.262a2.061,2.061,0,0,1,.011.269.4.4,0,0,1-.042.263.693.693,0,0,1-.288,0,.744.744,0,0,1-.091-.279.4.4,0,0,0-.033-.091.858.858,0,0,0-.314-.026,1.136,1.136,0,0,0-.172.028,1.052,1.052,0,0,0-.165.054,1.7,1.7,0,0,0,.008.482.274.274,0,0,0,.216-.031l.055-.227a.553.553,0,0,1,.28.028,1.742,1.742,0,0,1,0,.818.777.777,0,0,1-.114.027.09.09,0,0,1-.11-.072c-.019-.058-.033-.117-.048-.172-.085-.016-.123.034-.168.09a2.05,2.05,0,0,0,.154.366,1.368,1.368,0,0,0,.56-.118c0-.046.008-.1.013-.153s.012-.107.019-.162a.321.321,0,0,1,.266.024c.043.016.052.06.056.1a.782.782,0,0,0,.056.284c.065-.152.047-.3.124-.432.064,0,.125,0,.186,0a.237.237,0,0,1,.231.144.339.339,0,0,0,.091.111.351.351,0,0,0,.485-.031.144.144,0,0,0-.024-.231,1.022,1.022,0,0,0-.324-.132c-.125-.037-.25-.076-.373-.122a.492.492,0,0,1-.312-.36.634.634,0,0,1,.433-.819,1.08,1.08,0,0,1,.809.012.182.182,0,0,0,.174.005.389.389,0,0,1,.281.026.1.1,0,0,1,.06.1c.006.09.014.18.011.269,0,.123-.018.245-.027.363a.71.71,0,0,1-.488-.042l-.056-.164a.331.331,0,0,0-.418-.24.2.2,0,0,0-.177.154.219.219,0,0,0,.08.222.54.54,0,0,0,.265.109c.109.021.217.044.326.061a.657.657,0,0,1,.518.6A.679.679,0,0,1,1492.786,408.576Zm2.939-.787.2.081c.013.122.029.244.039.367,0,.056-.024.087-.083.1a.763.763,0,0,1-.122.02q-.362.025-.723.047a.488.488,0,0,1-.091-.013.959.959,0,0,1,.013-.368c0-.027.039-.054.066-.072a.47.47,0,0,1,.094-.038.273.273,0,0,0-.05-.265c-.025-.008-.038-.017-.051-.015l-.554.072a.248.248,0,0,0,.015.261c.062,0,.123,0,.183.013a.1.1,0,0,1,.091.1.988.988,0,0,1,0,.145,1.2,1.2,0,0,1-.023.122.452.452,0,0,1-.082.026l-.845.075a.421.421,0,0,1-.259-.029.453.453,0,0,1,0-.263l.2-.089a.132.132,0,0,0,.086-.129,1.236,1.236,0,0,0,0-.124c-.024-.268-.049-.536-.075-.8a1.217,1.217,0,0,0-.033-.148c-.1-.054-.209,0-.3-.067-.042-.126.042-.235.056-.359a.241.241,0,0,1,.076-.031c.276-.007.552-.015.828-.016.1,0,.124.029.138.119s.024.191.037.294a1.288,1.288,0,0,1-.127.07,1.255,1.255,0,0,1-.132.042c-.035.152-.035.152.067.4.036,0,.063,0,.09,0l.412-.038c.041,0,.083,0,.124-.006.128-.015.151-.039.169-.164.031-.213.031-.212-.19-.225a.308.308,0,0,1-.065-.02c-.027-.1.036-.2.025-.288a.294.294,0,0,1,.217-.089c.109-.013.22-.018.33-.023.151-.007.3-.011.467-.017.085.067.052.178.071.267-.053.074-.13.06-.193.081-.081.028-.109.053-.109.129C1495.716,407.2,1495.721,407.491,1495.725,407.789Zm2.323.31a.893.893,0,0,1-.453.346,1.2,1.2,0,0,1-.732.03,1.079,1.079,0,0,1-.737-.669,1.52,1.52,0,0,1-.1-.873.959.959,0,0,1,.1-.353.631.631,0,0,1,.28-.266,1.123,1.123,0,0,1,.781-.114,4.411,4.411,0,0,0,.448.083.574.574,0,0,1,.377.234.819.819,0,0,1,.077.122,1.88,1.88,0,0,1,.189.734A1.583,1.583,0,0,1,1498.048,408.1Zm2.483-1.137a.589.589,0,0,1-.35.408,2.515,2.515,0,0,1-.7.245c-.041.007-.082.014-.121.025a.1.1,0,0,0-.074.089.4.4,0,0,0,0,.062c0,.127.035.159.161.156.055,0,.11-.01.166-.009a.6.6,0,0,1,.1.017v.341a1.324,1.324,0,0,1-.428.066c-.143.018-.288.026-.433.04a3.037,3.037,0,0,1-.437.025c-.064-.293-.054-.3.172-.414.025-.012.048-.026.069-.038a.391.391,0,0,0,.025-.246c-.017-.3-.039-.592-.06-.888a.267.267,0,0,0-.019-.053.534.534,0,0,0-.1-.022c-.06,0-.124.028-.185-.032a1.439,1.439,0,0,1,.033-.42c0-.025.043-.055.072-.063a.642.642,0,0,1,.164-.021c.3-.006.607-.014.911-.012a2.6,2.6,0,0,1,.71.128.4.4,0,0,1,.3.311A.653.653,0,0,1,1500.531,406.962Zm4.252-2.751a1.333,1.333,0,0,1-.659.714,4.138,4.138,0,0,1-.748.238c-.093.026-.188.044-.282.067a3.25,3.25,0,0,1-1.538-.008,1.754,1.754,0,0,1-.323-.136.284.284,0,0,0-.246-.018,4.734,4.734,0,0,1-.056.563c-.15-.008-.3-.022-.45-.021a1.47,1.47,0,0,1-.819-.29c0-.086,0-.175,0-.264a5.281,5.281,0,0,0-.073-1.114c-.045-.215-.006-.269.207-.331a2.987,2.987,0,0,1,.8-.1.168.168,0,0,1,.141.073c.115.147.232.292.348.438a.917.917,0,0,0,.5.318.8.8,0,0,0,.328.024,1.586,1.586,0,0,0,.6-.216.565.565,0,0,0,.206-.2.266.266,0,0,0-.11-.4,1,1,0,0,0-.25-.1c-.2-.046-.392-.081-.589-.12-.3-.06-.6-.116-.892-.183a2.428,2.428,0,0,1-.674-.261,1.212,1.212,0,0,1-.553-.57,1.165,1.165,0,0,1,.085-1.131,1.833,1.833,0,0,1,1.353-.86,1.65,1.65,0,0,0,.164-.02,3.5,3.5,0,0,1,.989-.066,5.307,5.307,0,0,1,.74.089,4.312,4.312,0,0,1,.45.151.53.53,0,0,0,.248.062l.1-.336a1.1,1.1,0,0,1,.128,0c.193.017.385.034.578.055a.194.194,0,0,1,.2.178,3.52,3.52,0,0,1,.062.43c.012.193.013.387.007.58a2.048,2.048,0,0,1-.051.3.166.166,0,0,1-.153.146,4.213,4.213,0,0,1-.926.081.442.442,0,0,1-.059-.013,2.022,2.022,0,0,0-.135-.254,1.244,1.244,0,0,0-.529-.419.657.657,0,0,0-.262-.05,1.178,1.178,0,0,0-.558.135.45.45,0,0,0-.26.351.252.252,0,0,0,.178.308,1.305,1.305,0,0,0,.2.054c.339.068.678.131,1.016.2a3.723,3.723,0,0,1,.98.323,1.5,1.5,0,0,1,.388.274.426.426,0,0,1,.118.191c.055.207.118.411.165.62A.872.872,0,0,1,1504.783,404.211Z" transform="translate(-1452.155 -395.45)" fill="#fcf5f4"/>
    <path id="Path_352" data-name="Path 352" d="M1608.177,441.765a1.154,1.154,0,0,0-.172.028A1.154,1.154,0,0,1,1608.177,441.765Z" transform="translate(-1569.715 -430.386)" fill="#e8292a"/>
    <path id="Path_353" data-name="Path 353" d="M1608.7,441.753a.859.859,0,0,1,.314.026.424.424,0,0,1,.033.091.424.424,0,0,0-.033-.091A.859.859,0,0,0,1608.7,441.753Z" transform="translate(-1570.242 -430.374)" fill="#e8292a"/>
    <path id="Path_354" data-name="Path 354" d="M1630.794,419.817c.185-.054.37-.11.555-.166l.841-.254a.618.618,0,0,0-.129-.543,1.016,1.016,0,0,0-.316-.264.672.672,0,0,0-.875.171,1.2,1.2,0,0,0-.261.556.756.756,0,0,0,.015.409C1630.661,419.828,1630.694,419.846,1630.794,419.817Z" transform="translate(-1586.749 -412.836)" fill="#fcf5f4"/>
    <path id="Path_355" data-name="Path 355" d="M1580.518,424.718a.852.852,0,0,0,.581-.231,1.252,1.252,0,0,0,.393-.862,2.51,2.51,0,0,0-.075-.758,1.543,1.543,0,0,0-.123-.327.331.331,0,0,0-.377-.187.814.814,0,0,0-.491.242,1.4,1.4,0,0,0-.187.245,2.051,2.051,0,0,0-.291,1.132,1.26,1.26,0,0,0,.056.378A.513.513,0,0,0,1580.518,424.718Z" transform="translate(-1548.551 -415.738)" fill="#fcf5f4"/>
    <path id="Path_356" data-name="Path 356" d="M1510.7,426.639a1.02,1.02,0,0,0-.156-.442.2.2,0,0,0-.066-.006,3.506,3.506,0,0,0-.763.313.7.7,0,0,0-.171.148.2.2,0,0,0,.016.312.731.731,0,0,0,.221.149c.192.075.39.138.586.2a1.206,1.206,0,0,0,.223.045c.126.015.173-.022.166-.144A5.044,5.044,0,0,0,1510.7,426.639Z" transform="translate(-1495.397 -418.637)" fill="#fcf5f4"/>
    <path id="Path_357" data-name="Path 357" d="M1556.019,418.61a.673.673,0,0,0-.937.179,1.23,1.23,0,0,0-.231.5.753.753,0,0,0,.01.43c.037.1.075.117.173.088.179-.052.357-.107.536-.16l.862-.258a.605.605,0,0,0-.146-.556A1.235,1.235,0,0,0,1556.019,418.61Z" transform="translate(-1529.6 -412.832)" fill="#fcf5f4"/>
    <path id="Path_358" data-name="Path 358" d="M1634.02,440.573c-.259-.113-.409-.017-.442.243a1.059,1.059,0,0,0-.009.124c0,.076,0,.152,0,.228l-.019,0c.019.157.029.315.059.47a.507.507,0,0,0,.369.385.346.346,0,0,0,.449-.189.856.856,0,0,0,.063-.259,1.414,1.414,0,0,0-.061-.532A.722.722,0,0,0,1634.02,440.573Z" transform="translate(-1588.984 -429.451)" fill="#fcf5f4"/>
    <path id="Path_359" data-name="Path 359" d="M1643.513,440.995a.985.985,0,0,0-.434.011,1.138,1.138,0,0,0,.042.491.778.778,0,0,0,.371-.044.574.574,0,0,0,.169-.114.171.171,0,0,0,.015-.226A.255.255,0,0,0,1643.513,440.995Z" transform="translate(-1596.167 -429.791)" fill="#fcf5f4"/>
    <path id="Path_360" data-name="Path 360" d="M1579.1,445.538a.707.707,0,0,0-.5-.05c-.011,0-.019.019-.042.044a1.538,1.538,0,0,0,.121.476.984.984,0,0,0,.442-.112A.206.206,0,0,0,1579.1,445.538Z" transform="translate(-1547.498 -433.176)" fill="#fcf5f4"/>
    <path id="Path_361" data-name="Path 361" d="M1579.117,442.38a.119.119,0,0,0,.01-.169.44.44,0,0,0-.337-.173.09.09,0,0,0-.1.085,1.392,1.392,0,0,0,.006.384A.4.4,0,0,0,1579.117,442.38Z" transform="translate(-1547.595 -430.592)" fill="#fcf5f4"/>
    <path id="Path_362" data-name="Path 362" d="M1588.228,442.927c-.009-.018-.042-.023-.081-.042-.019.154-.039.289-.052.426-.009.092.019.134.1.151a1.1,1.1,0,0,0,.272.03c0-.039.01-.055,0-.066C1588.394,443.259,1588.313,443.092,1588.228,442.927Z" transform="translate(-1554.696 -431.231)" fill="#fcf5f4"/>
  </g>
</svg>
