<svg xmlns="http://www.w3.org/2000/svg" width="28.076" height="16.38" viewBox="0 0 28.076 16.38">
  <g id="roy-plaza-store-roys-bistro-white-logo" transform="translate(0.001 0)">
    <path id="Path_344" data-name="Path 344" d="M1348.869,399.915a2.224,2.224,0,0,0-.275-.5l.891-.314-.567-1.448-.822.173a1.837,1.837,0,0,0-1.624-.372,1.817,1.817,0,0,0-.6.2h0l.253-.49,1.01-.106-.052-2.1-4.611,0q-.2-.338-.432-.653a8.236,8.236,0,0,0-2.5-2.25q-.34-.2-.7-.363-.24-.11-.487-.2a8.138,8.138,0,0,0-1.549-.422,8.174,8.174,0,0,0-6.7,1.857q-.1.088-.2.179-.3.273-.568.575-.18.2-.347.413-.25.318-.469.662-.145.228-.276.467-.233-.077-.489-.135c-.171-.039-.349-.072-.537-.1a8.342,8.342,0,0,0-.907-.074q-.162,0-.332,0l-4.564.007.456,2.624,1.738.024h0l-.037.836-1.277-.014.034,2.326,3.359.027-.011.959h1.973a8.175,8.175,0,0,0,1.549,2.758q.2.24.427.464a8.249,8.249,0,0,0,1.752,1.342q.138.079.279.152a8.194,8.194,0,0,0,8.686-.715q.2-.151.394-.315a8.211,8.211,0,0,0,1.835-2.224,8.122,8.122,0,0,0,.644-1.462h1.725l-.07-.618.856.56.418-.35q.052.034.109.063a1.65,1.65,0,0,0,.241.1,2.3,2.3,0,0,0,.691.108h0a2.622,2.622,0,0,0,.277-.013l.029,0c.081-.009.162-.022.241-.038s.14-.032.208-.052c.051-.015.1-.032.151-.051A1.1,1.1,0,0,0,1348.869,399.915Zm-13.439-8.055a7.288,7.288,0,0,1,6.1,3.292l.027.455-1.7-.035a5.7,5.7,0,0,0-9.441.883l-.16.125a4.617,4.617,0,0,0-1.193-.985A7.293,7.293,0,0,1,1335.43,391.861Zm2.009,8.309a5.635,5.635,0,0,1-5.615,0,1.993,1.993,0,0,1,0-3.626,5.636,5.636,0,0,1,5.615,0,1.993,1.993,0,0,1,0,3.626Zm1.6,1.374a1.035,1.035,0,0,1,.573.153.407.407,0,0,1,0,.74,1.15,1.15,0,0,1-1.146,0,.407.407,0,0,1,0-.74A1.035,1.035,0,0,1,1339.038,401.543Zm-1.652.588-.211,0-.067.347.238-.01v.16l-.844.01v-.185h.279l.018-.718-.34-.01-.025-.186.757.005a.821.821,0,0,1,.556.153.251.251,0,0,1,.08.15.244.244,0,0,1-.184.234l.166.157.265.014.014.176-.836.01v-.187l.251.016Zm-1.553-.347v.608l.173.005,0,.183h-.633l-.023-.2.21.009-.039-.636h-.359v.136H1335l-.022-.361h.181v.033l.995.019v-.033h.181l-.028.366h-.163v-.132Zm-1.565-.112a.255.255,0,0,0-.153.046.165.165,0,0,0-.063.073.075.075,0,0,0-.005.026q0,.06.126.1a2.387,2.387,0,0,1,.415.148.353.353,0,0,1,.162.139.4.4,0,0,1,.027.168.248.248,0,0,1-.071.186.376.376,0,0,1-.271.085,1.459,1.459,0,0,1-.383-.063,1.341,1.341,0,0,1-.2-.071l-.078.07-.149-.107.324-.3.127.135-.073.064a1.169,1.169,0,0,0,.113.037.98.98,0,0,0,.24.042c.088,0,.131-.039.127-.116a.133.133,0,0,0-.014-.067.2.2,0,0,0-.1-.067,1.757,1.757,0,0,0-.28-.077.483.483,0,0,1-.228-.107.234.234,0,0,1-.087-.179.259.259,0,0,1,.03-.117.456.456,0,0,1,.113-.158.394.394,0,0,1,.261-.08,1.139,1.139,0,0,1,.266.037.843.843,0,0,1,.257.114l.172-.067.058.166-.513.191-.091-.145.148-.057A.492.492,0,0,0,1334.268,401.673Zm-.738.76v.161l-.78-.014v-.161h.25V401.7l-.25.014v-.161l.836-.014-.014.175-.265.015-.028.687Zm-2.258-.717v-.161l.637-.014h0a.8.8,0,0,1,.366.086q.149.081.149.194t-.163.2a.5.5,0,0,1,.172.111.2.2,0,0,1,.063.14.266.266,0,0,1-.187.245,1.139,1.139,0,0,1-.436.073l-.509-.014v-.161h.217V401.7Zm-4.654-.722v-.907l1.228.069-.806-1.41q-.132.013-1.039.013l-.075.472,1.158-.05v.787l-4.136.05v-.913h1.366l-.151-2.285-1.675-.05-.119-.913,3.708.025a4,4,0,0,1,2.732.749,1.248,1.248,0,0,1,.384.736,1.194,1.194,0,0,1-.9,1.146l1.058,1.5,1.3.075.069.856Zm8.812,5.457a7.3,7.3,0,0,1-6.836-4.743h1.744a5.7,5.7,0,0,0,10.184,0h1.744A7.3,7.3,0,0,1,1335.43,406.452Zm8.592-5.489h-3.758v-.453l1.221-.044-.044-1.448-2.083-1.863-1.089-.088v-.592l3.173.05v.5l-1.172.044,1.539,1.317,1.584-1.952-1.045-.088-.044-.5h3.808v.5l-1.133.088-2.178,2.631v1.36l1.221.088Zm1.134-2.263h-.315l.019-.5h.611l.057.5-.258.482Zm2.92,2.09a.922.922,0,0,1-.664.208,3.579,3.579,0,0,1-.938-.154,3.285,3.285,0,0,1-.485-.173l-.192.17-.365-.261.793-.724.312.331-.18.157a2.851,2.851,0,0,0,.277.091,2.382,2.382,0,0,0,.588.1q.324,0,.312-.283a.328.328,0,0,0-.034-.164.5.5,0,0,0-.246-.164,4.3,4.3,0,0,0-.686-.189,1.189,1.189,0,0,1-.559-.261.571.571,0,0,1-.212-.438.636.636,0,0,1,.073-.286,1.114,1.114,0,0,1,.277-.387.964.964,0,0,1,.639-.2,2.771,2.771,0,0,1,.651.091,2.048,2.048,0,0,1,.63.28l.422-.164.142.406-1.256.469-.223-.356.362-.139a1.2,1.2,0,0,0-.51-.129.623.623,0,0,0-.375.113.408.408,0,0,0-.154.179.166.166,0,0,0-.013.063q0,.148.309.233a5.863,5.863,0,0,1,1.016.362.861.861,0,0,1,.4.34.966.966,0,0,1,.066.412A.609.609,0,0,1,1348.077,400.79Z" transform="translate(-1321.411 -390.966)" fill="#fff"/>
    <path id="Path_345" data-name="Path 345" d="M1391.179,435.327a.728.728,0,0,0,.741,0,.273.273,0,0,0,0-.491.727.727,0,0,0-.741,0,.273.273,0,0,0,0,.491Z" transform="translate(-1373.922 -423.982)" fill="#fff"/>
    <path id="Path_346" data-name="Path 346" d="M1364.272,434.83a.109.109,0,0,0,.064-.09.112.112,0,0,0-.069-.093.365.365,0,0,0-.167-.043l-.009.271h.023A.351.351,0,0,0,1364.272,434.83Z" transform="translate(-1353.604 -423.883)" fill="#fff"/>
    <path id="Path_347" data-name="Path 347" d="M1369.154,414.628a3.565,3.565,0,0,0-3.632,0,1.337,1.337,0,0,0,0,2.4,3.565,3.565,0,0,0,3.632,0,1.337,1.337,0,0,0,0-2.4Z" transform="translate(-1354.117 -408.44)" fill="#fff"/>
    <path id="Path_348" data-name="Path 348" d="M1340.867,414.259a3.648,3.648,0,0,0-.459.031l-.082,1.247a4.492,4.492,0,0,0,.453.025q1.177,0,1.271-.655Q1341.963,414.259,1340.867,414.259Z" transform="translate(-1335.679 -408.536)" fill="#fff"/>
    <path id="Path_349" data-name="Path 349" d="M1385.97,434.83q-.016-.132-.24-.132a.719.719,0,0,0-.094.007l-.018.254a.926.926,0,0,0,.094.005Q1385.952,434.964,1385.97,434.83Z" transform="translate(-1369.843 -423.954)" fill="#fff"/>
    <path id="Path_350" data-name="Path 350" d="M1364.154,436.372l-.012.308a.508.508,0,0,0,.207-.05q.09-.045.09-.1c0-.042-.028-.078-.083-.108A.431.431,0,0,0,1364.154,436.372Z" transform="translate(-1353.643 -425.216)" fill="#fff"/>
  </g>
</svg>
