<svg xmlns="http://www.w3.org/2000/svg" width="28.826" height="14.706" viewBox="0 0 28.826 14.706">
  <g id="roy-plaza-store-roy-plaza-logo" transform="translate(-0.001 0)">
    <path id="Path_336" data-name="Path 336" d="M1753.39,424.6a1.755,1.755,0,0,0,.22.028c.089-.009.175-.013.259-.028a.37.37,0,0,0,.288-.211c.058-.122.118-.244.166-.371q.262-.7.516-1.407c.064-.177.127-.356.184-.536.036-.113.013-.176-.069-.205a.625.625,0,0,0-.182-.037,1.968,1.968,0,0,0-.3.011.436.436,0,0,0-.344.2,2.16,2.16,0,0,0-.177.42c-.174.47-.349.94-.52,1.411a4.4,4.4,0,0,0-.169.518C1753.231,424.542,1753.245,424.564,1753.39,424.6Z" transform="translate(-1737.021 -415.678)" fill="#fcf5f4"/>
    <path id="Path_337" data-name="Path 337" d="M1746.709,437.859c-.066-.008-.133-.011-.2-.012a.045.045,0,0,0-.034.024c-.035.092-.068.185-.1.286.065,0,.121,0,.177,0a.176.176,0,0,0,.173-.136.563.563,0,0,1,.031-.086C1746.773,437.889,1746.752,437.864,1746.709,437.859Z" transform="translate(-1731.833 -427.758)" fill="#fcf5f4"/>
    <path id="Path_338" data-name="Path 338" d="M1763.228,438.687c.032,0,.048-.01.05-.046.009-.157.022-.315.034-.48l-.379.526Z" transform="translate(-1744.325 -427.995)" fill="#fcf5f4"/>
    <path id="Path_339" data-name="Path 339" d="M1690.687,422.209c.094-.336.193-.671.3-1q.217-.663.453-1.319c.123-.339.256-.673.395-1.006q.219-.526.458-1.045c.1-.225.222-.443.34-.661.091-.167.19-.329.288-.493.028-.047.06-.09.09-.136l-.01-.008c-.077.038-.155.071-.229.113-.216.121-.429.245-.643.37s-.4.234-.6.354c-.264.158-.527.317-.79.477l-.725.441-.672.414-.815.5-.705.432q-.2.124-.409.244a6.27,6.27,0,0,0,2.913,3.671l.008-.035C1690.451,423.082,1690.565,422.644,1690.687,422.209Z" transform="translate(-1687.359 -411.686)" fill="#fcf5f4"/>
    <path id="Path_340" data-name="Path 340" d="M1716.022,404.15c0-4.07-6.462-7.369-14.433-7.369-7.627,0-13.868,3.021-14.393,6.847a4.017,4.017,0,0,1,.122-.531c.143-.078.28-.154.42-.225.237-.121.475-.237.715-.353.321-.155.643-.308.964-.46.163-.077.325-.154.489-.228.369-.168.739-.334,1.108-.5.154-.07.307-.141.462-.209.246-.108.492-.214.738-.32l.743-.323c.246-.107.491-.217.739-.32.319-.134.639-.266.961-.393.287-.113.577-.218.866-.326a.567.567,0,0,1,.087-.016c-.011.026-.014.037-.02.047-.142.247-.291.49-.424.741s-.263.522-.385.787-.25.558-.365.841c-.162.4-.321.793-.471,1.194-.14.373-.269.751-.4,1.129-.094.275-.182.553-.269.83-.115.369-.229.738-.337,1.109-.1.328-.189.657-.275.988-.1.386-.193.774-.283,1.163-.05.218-.089.438-.133.657-.025.125-.052.25-.074.376s-.045.279-.065.42c.123.055.247.109.373.162l.011-.065c.03-.177.056-.354.09-.53q.07-.366.149-.73c.065-.3.132-.606.2-.908.062-.264.129-.527.2-.789.083-.317.167-.634.254-.95.071-.255.146-.507.222-.76.1-.34.2-.68.31-1.018.077-.245.162-.488.246-.731.068-.2.135-.4.21-.592.132-.344.267-.688.406-1.03.116-.284.236-.568.365-.847.111-.239.23-.475.358-.7.149-.267.311-.527.47-.788.028-.046.05-.1.115-.115a10.137,10.137,0,0,1,1.375-.259c.2-.021.4-.044.6-.052a4.49,4.49,0,0,1,.491.01c.164.011.326.03.489.053a2.048,2.048,0,0,1,.657.207,1.1,1.1,0,0,1,.389.322.786.786,0,0,1,.132.536.968.968,0,0,1-.121.4,2.216,2.216,0,0,1-.573.675,6.169,6.169,0,0,1-.554.4,5.438,5.438,0,0,1-.847.441c-.252.105-.5.212-.761.3s-.506.167-.762.235c-.37.1-.743.182-1.116.268-.042.009-.051.023-.047.059a2.54,2.54,0,0,0,.036.33c.068.286.138.572.225.853a12.209,12.209,0,0,0,.489,1.277q.221.5.454,1c.121.258.252.512.38.766.093.183.187.365.284.545.171.318.343.636.519.952.145.259.291.519.447.771.266.429.532.858.813,1.278.177.265.373.518.565.773q.318.022.64.037c-.052-.063-.106-.125-.155-.192-.219-.3-.443-.6-.648-.908-.3-.455-.593-.917-.881-1.38-.2-.315-.385-.636-.571-.957-.175-.3-.344-.607-.51-.913q-.228-.418-.444-.842-.2-.4-.39-.8c-.155-.336-.307-.673-.453-1.012a7.971,7.971,0,0,1-.389-1.126c-.024-.093-.038-.189-.057-.283.254-.049.495-.087.73-.144a9.425,9.425,0,0,0,1.2-.349c.259-.1.519-.2.77-.311a5.713,5.713,0,0,0,1.006-.573c.159-.117.318-.236.467-.365a4.015,4.015,0,0,0,.326-.335,2.138,2.138,0,0,0,.389-.6,1.2,1.2,0,0,0,.1-.641.923.923,0,0,0-.248-.51,1.529,1.529,0,0,0-.639-.4,2.914,2.914,0,0,0-.72-.163c-.176-.015-.352-.036-.529-.041s-.331,0-.5.009c-.124,0-.248.009-.37.023-.187.021-.374.047-.561.075-.207.031-.416.058-.621.1-.317.066-.634.137-.948.219s-.6.168-.893.262c-.256.08-.508.17-.76.26s-.484.174-.723.27c-.3.12-.6.245-.9.372q-.542.231-1.08.47c-.254.112-.506.229-.757.346q-.462.216-.922.438-.409.2-.815.4c-.391.2-.781.394-1.171.591-.03.015-.062.028-.094.041a6.289,6.289,0,0,1,1.708-2.117c.347-.147.694-.3,1.042-.441.329-.137.659-.273.992-.4q.565-.22,1.135-.427c.412-.149.824-.3,1.24-.435.443-.147.889-.283,1.335-.419.229-.07.459-.134.691-.194.272-.072.547-.137.82-.2.162-.039.324-.079.488-.11q.457-.087.917-.164.32-.054.643-.1c.18-.023.362-.039.543-.055.16-.014.321-.027.482-.032.185-.005.37-.005.554,0,.226.006.452.018.677.032a3.246,3.246,0,0,1,.409.045c.214.042.426.092.636.148a2.8,2.8,0,0,1,.927.435,1.934,1.934,0,0,1,.486.495,1.674,1.674,0,0,1,.281.91,2.841,2.841,0,0,1-.043.528,2.619,2.619,0,0,1-.233.677,4.056,4.056,0,0,1-.567.87,4.552,4.552,0,0,1-.519.539c-.15.128-.3.255-.453.377a5.817,5.817,0,0,1-.936.594c-.216.112-.441.209-.664.306a6.581,6.581,0,0,1-.906.305,7.061,7.061,0,0,1-1.156.215c-.172.017-.345.029-.518.044l-.213.017c.018.075.03.146.052.215a3.145,3.145,0,0,0,.349.753c.186.292.371.586.574.867s.425.55.643.82c.184.228.374.451.564.673.146.17.3.336.447.5q.184.2.372.4.211.225.424.446c.137.143.275.286.416.426s.288.283.433.423l.7.673.242.231c.05.047.1.094.151.139l.478.424c.087.077.174.155.263.229s.2.166.306.248C1710.695,410.9,1716.022,407.844,1716.022,404.15Zm-15.6,1.253a6.662,6.662,0,0,1,.328-1.031c.1-.264.193-.53.3-.791a1.579,1.579,0,0,1,.339-.563,1.693,1.693,0,0,1,.5-.3,3.839,3.839,0,0,1,.721-.231c.184-.041.369-.075.555-.1.223-.034.447-.059.67-.086.072-.008.143-.01.215-.013.179-.008.359-.018.538-.021.31-.006.62-.011.931-.01.161,0,.323.008.484.022.236.02.47.049.705.074a4.244,4.244,0,0,1,.7.142,1.92,1.92,0,0,1,.531.226.618.618,0,0,1,.278.3.544.544,0,0,1,0,.3,6.743,6.743,0,0,1-.308.955,10.976,10.976,0,0,1-.437,1.083,1.123,1.123,0,0,1-.51.5,3.791,3.791,0,0,1-1.014.347c-.2.04-.394.076-.593.107-.134.021-.269.033-.4.045-.2.017-.4.033-.605.043-.257.013-.515.02-.772.03v-.009c-.136,0-.271,0-.406,0-.214-.007-.427-.017-.641-.032-.174-.013-.349-.029-.521-.054a4.5,4.5,0,0,1-.956-.216,1.393,1.393,0,0,1-.511-.3A.42.42,0,0,1,1700.417,405.4Zm2.171,1.963a3.7,3.7,0,0,1-.4.046c-.168.01-.336.009-.5.011a.048.048,0,0,0-.054.038c-.052.147-.107.293-.161.44-.009.025-.016.044-.05.044h-.959a.189.189,0,0,1-.027-.005l.094-.252q.182-.5.363-1a.079.079,0,0,1,.088-.063c.388,0,.777,0,1.165,0,.211,0,.422.034.633.052h.011c.2.06.242.132.169.324a1.124,1.124,0,0,1-.12.239A.348.348,0,0,1,1702.588,407.366Zm1.908.358c-.027.072-.055.143-.083.215-.073,0-.147.005-.221.005h-1.4c.012-.04.02-.072.031-.1.142-.387.286-.773.427-1.16a.068.068,0,0,1,.077-.054c.3,0,.6,0,.9,0h.064l-.384,1.042h.6A.25.25,0,0,1,1704.5,407.724Zm1.557.218c.011-.078.021-.153.033-.235-.113,0-.219,0-.326,0-.015,0-.033.019-.043.034-.038.055-.07.113-.108.167a.082.082,0,0,1-.054.034c-.327,0-.654,0-.981,0a.137.137,0,0,1-.024-.006c.018-.026.032-.049.049-.07q.46-.606.921-1.211a.075.075,0,0,1,.052-.027l1.377,0c.037,0,.049.012.051.049.012.183.028.365.041.548.009.126.015.251.023.377.008.111.017.222.026.339Zm3.137-.214c-.009.027-.019.054-.029.081-.017.044-.021.106-.053.125s-.1.011-.147.011h-1.714c.037-.084.039-.172.115-.231.334-.261.667-.524,1-.785a.144.144,0,0,1,.023-.013l-.007-.012h-.655c.019-.055.034-.1.051-.148.046-.127.046-.127.181-.127h1.643c-.055.128-.068.257-.191.345-.3.218-.6.448-.9.674a.192.192,0,0,0-.021.023h.716C1709.2,407.694,1709.2,407.711,1709.191,407.727Zm1.6.214c.011-.078.022-.154.034-.235-.112,0-.217,0-.321,0a.077.077,0,0,0-.048.035c-.038.055-.07.113-.108.167a.081.081,0,0,1-.054.033c-.325,0-.65,0-.975,0a.178.178,0,0,1-.026,0,.209.209,0,0,1,.017-.04q.474-.622.949-1.244a.082.082,0,0,1,.057-.028l1.371,0c.041,0,.05.015.052.053.011.179.027.357.041.536.009.115.016.23.023.345l.022.339c0,.012,0,.024,0,.041Zm2.946-4.191c-.175.14-.348.282-.523.422l-.567.454c-.1.078-.2.153-.293.236a.271.271,0,0,0-.064.108q-.246.662-.487,1.326c-.013.037-.035.034-.062.034h-2.813c.023-.066.042-.124.063-.182l.264-.712.186-.5a.113.113,0,0,0,0-.1c-.141-.292-.278-.585-.418-.877-.129-.269-.261-.538-.391-.807s-.249-.516-.372-.774c-.007-.014-.011-.029-.019-.051l.064,0h2.716c.044,0,.064.006.072.059.03.2.073.4.1.594.021.13.033.262.045.393.01.116.017.232.021.349a1.235,1.235,0,0,1-.013.148c.078-.093.145-.175.214-.256.081-.1.161-.193.246-.285q.243-.265.49-.525.219-.229.444-.452a.11.11,0,0,1,.072-.023h2.778a.327.327,0,0,1-.04.055c-.171.137-.343.272-.513.409-.193.155-.384.312-.577.466S1713.944,403.584,1713.737,403.75Z" transform="translate(-1687.196 -396.781)" fill="#fcf5f4"/>
    <path id="Path_341" data-name="Path 341" d="M1715.574,427.709c-.191-.384-.382-.77-.563-1.159-.143-.306-.273-.617-.4-.928-.111-.265-.222-.531-.322-.8s-.193-.556-.285-.836c-.065-.2-.13-.4-.182-.6a8.338,8.338,0,0,1-.251-1.257c-.016-.17-.037-.341-.041-.512,0-.192.008-.384.013-.573a.125.125,0,0,0-.01.021c-.031.1-.062.193-.091.289-.124.405-.249.81-.369,1.216-.1.328-.191.657-.275.988-.136.532-.264,1.067-.393,1.6-.068.283-.131.566-.2.85-.043.19-.088.38-.129.57-.051.236-.1.472-.147.708q-.068.331-.136.662c-.034.167-.066.335-.1.5a22.7,22.7,0,0,0,4.921,1.155c-.214-.377-.431-.754-.641-1.134C1715.834,428.221,1715.7,427.966,1715.574,427.709Z" transform="translate(-1705.675 -415.082)" fill="#fcf5f4"/>
    <path id="Path_342" data-name="Path 342" d="M1721.526,410.723a3.6,3.6,0,0,0,.764-.587,1.893,1.893,0,0,0,.383-.551.8.8,0,0,0,.073-.414.6.6,0,0,0-.363-.491,1.39,1.39,0,0,0-.584-.128,2.53,2.53,0,0,0-.418.022c-.193.027-.384.069-.575.109a.163.163,0,0,0-.1.054c-.139.218-.285.435-.406.663-.142.269-.27.546-.389.826-.133.311-.249.63-.371.946-.034.089-.062.18-.094.276l.1-.018a6.081,6.081,0,0,0,.84-.209A5.476,5.476,0,0,0,1721.526,410.723Z" transform="translate(-1711.523 -405.659)" fill="#fcf5f4"/>
    <path id="Path_343" data-name="Path 343" d="M1782.507,438.685c.042,0,.054-.015.056-.057.008-.154.022-.308.034-.471l-.38.527C1782.327,438.685,1782.417,438.684,1782.507,438.685Z" transform="translate(-1758.872 -427.992)" fill="#fcf5f4"/>
  </g>
</svg>
