<svg xmlns="http://www.w3.org/2000/svg" width="291.021" height="45.167" viewBox="0 0 291.021 45.167">
  <g id="roy_plaza_store_online_logo" transform="translate(1673.29 -1645.337)">
    <g id="Group_200" data-name="Group 200" transform="translate(-1597.738 1674.689)">
      <path id="Path_264" data-name="Path 264" d="M-1557.449,1696.377a2.486,2.486,0,0,1-1.025.935,3.55,3.55,0,0,1-1.654.353,4.284,4.284,0,0,1-1.718-.327,2.9,2.9,0,0,1-1.211-.941,2.718,2.718,0,0,1-.519-1.436h1.922a1.467,1.467,0,0,0,.443.917,1.386,1.386,0,0,0,1.006.365,1.172,1.172,0,0,0,.866-.3,1.051,1.051,0,0,0,.3-.776,1.015,1.015,0,0,0-.244-.7,1.775,1.775,0,0,0-.615-.442q-.372-.166-1.026-.385a10.042,10.042,0,0,1-1.384-.557,2.551,2.551,0,0,1-.916-.8,2.3,2.3,0,0,1-.378-1.372,2.23,2.23,0,0,1,.84-1.839,3.447,3.447,0,0,1,2.223-.673,3.522,3.522,0,0,1,2.288.692,2.61,2.61,0,0,1,.968,1.846h-1.948a1.355,1.355,0,0,0-.411-.8,1.272,1.272,0,0,0-.91-.314,1.2,1.2,0,0,0-.808.262.948.948,0,0,0-.307.762.947.947,0,0,0,.237.661,1.8,1.8,0,0,0,.6.429,9.61,9.61,0,0,0,.993.372,13.319,13.319,0,0,1,1.417.577,2.506,2.506,0,0,1,.929.808,2.373,2.373,0,0,1,.384,1.41A2.457,2.457,0,0,1-1557.449,1696.377Z" transform="translate(1563.601 -1688.09)" fill="#ca8a26"/>
      <path id="Path_265" data-name="Path 265" d="M-1546.04,1691.04a3.263,3.263,0,0,1,.731,2.269v4.128h-1.8v-3.923a1.858,1.858,0,0,0-.435-1.314,1.552,1.552,0,0,0-1.192-.468,1.594,1.594,0,0,0-1.231.5,2.044,2.044,0,0,0-.462,1.436v3.769h-1.807v-9.486h1.807v3.807a2.264,2.264,0,0,1,.93-1.121,2.759,2.759,0,0,1,1.493-.4A2.515,2.515,0,0,1-1546.04,1691.04Z" transform="translate(1560.062 -1687.951)" fill="#ca8a26"/>
      <path id="Path_266" data-name="Path 266" d="M-1534.89,1691.718a3.193,3.193,0,0,1,1.3,1.263,3.836,3.836,0,0,1,.474,1.942,3.8,3.8,0,0,1-.474,1.935,3.247,3.247,0,0,1-1.3,1.263,3.892,3.892,0,0,1-1.865.442,3.9,3.9,0,0,1-1.865-.442,3.25,3.25,0,0,1-1.3-1.263,3.8,3.8,0,0,1-.474-1.935,3.835,3.835,0,0,1,.474-1.942,3.2,3.2,0,0,1,1.3-1.263,3.941,3.941,0,0,1,1.865-.436A3.938,3.938,0,0,1-1534.89,1691.718Zm-3.147,1.66a2.108,2.108,0,0,0-.526,1.545,2.105,2.105,0,0,0,.526,1.544,1.734,1.734,0,0,0,1.282.532,1.734,1.734,0,0,0,1.282-.532,2.105,2.105,0,0,0,.526-1.544,2.108,2.108,0,0,0-.526-1.545,1.734,1.734,0,0,0-1.282-.531A1.734,1.734,0,0,0-1538.036,1693.378Z" transform="translate(1556.379 -1688.988)" fill="#ca8a26"/>
      <path id="Path_267" data-name="Path 267" d="M-1522.106,1691.718a2.947,2.947,0,0,1,1.122,1.263,4.387,4.387,0,0,1,.4,1.942,4.386,4.386,0,0,1-.4,1.942,2.941,2.941,0,0,1-1.122,1.262,3.047,3.047,0,0,1-1.615.436,2.67,2.67,0,0,1-1.531-.429,2.344,2.344,0,0,1-.9-1.148v4.871h-1.808v-10.485h1.808v1.474a2.31,2.31,0,0,1,.9-1.141,2.7,2.7,0,0,1,1.531-.423A3.051,3.051,0,0,1-1522.106,1691.718Zm-3.532,1.7a2.093,2.093,0,0,0-.531,1.506,2.075,2.075,0,0,0,.531,1.493,1.789,1.789,0,0,0,1.352.557,1.777,1.777,0,0,0,1.359-.545,2.11,2.11,0,0,0,.513-1.505,2.134,2.134,0,0,0-.513-1.513,1.766,1.766,0,0,0-1.359-.551A1.786,1.786,0,0,0-1525.637,1693.416Z" transform="translate(1552.51 -1688.988)" fill="#ca8a26"/>
      <path id="Path_268" data-name="Path 268" d="M-1506.923,1691.935a2.836,2.836,0,0,1,.974,1.744h-1.692a1.4,1.4,0,0,0-.462-.82,1.386,1.386,0,0,0-.936-.308,1.073,1.073,0,0,0-.718.218.734.734,0,0,0-.256.59.6.6,0,0,0,.2.475,1.47,1.47,0,0,0,.513.282q.308.1.884.244a9.086,9.086,0,0,1,1.313.378,2.172,2.172,0,0,1,.872.628,1.73,1.73,0,0,1,.365,1.16,1.791,1.791,0,0,1-.712,1.474,3,3,0,0,1-1.916.564,3.619,3.619,0,0,1-2.217-.622,2.61,2.61,0,0,1-1.013-1.775h1.73a1.168,1.168,0,0,0,.462.826,1.67,1.67,0,0,0,1.038.3,1.006,1.006,0,0,0,.705-.224.758.758,0,0,0,.243-.583.643.643,0,0,0-.211-.5,1.431,1.431,0,0,0-.526-.295q-.314-.1-.891-.243a10.05,10.05,0,0,1-1.288-.366,2.053,2.053,0,0,1-.846-.6,1.676,1.676,0,0,1-.353-1.128,1.847,1.847,0,0,1,.705-1.5,2.988,2.988,0,0,1,1.948-.577A3.137,3.137,0,0,1-1506.923,1691.935Z" transform="translate(1547.454 -1688.988)" fill="#ca8a26"/>
      <path id="Path_269" data-name="Path 269" d="M-1490.178,1692.065a3.2,3.2,0,0,1,.75,2.275v4.128h-1.794v-3.923a1.772,1.772,0,0,0-.417-1.263,1.5,1.5,0,0,0-1.147-.442,1.583,1.583,0,0,0-1.206.474,1.942,1.942,0,0,0-.448,1.384v3.769h-1.795v-3.923a1.773,1.773,0,0,0-.416-1.263,1.5,1.5,0,0,0-1.147-.442,1.581,1.581,0,0,0-1.2.474,1.939,1.939,0,0,0-.449,1.384v3.769h-1.807v-7.1h1.807v1.346a2.2,2.2,0,0,1,.891-1.071,2.626,2.626,0,0,1,1.416-.378,2.691,2.691,0,0,1,1.493.41,2.513,2.513,0,0,1,.955,1.18,2.68,2.68,0,0,1,.993-1.161,2.657,2.657,0,0,1,1.48-.429A2.664,2.664,0,0,1-1490.178,1692.065Z" transform="translate(1544.199 -1688.982)" fill="#ca8a26"/>
      <path id="Path_270" data-name="Path 270" d="M-1477.616,1691.7a2.306,2.306,0,0,1,.91,1.141v-1.474h1.794v7.1h-1.794v-1.487a2.34,2.34,0,0,1-.91,1.148,2.7,2.7,0,0,1-1.539.429,3.049,3.049,0,0,1-1.615-.436,2.939,2.939,0,0,1-1.121-1.262,4.376,4.376,0,0,1-.4-1.942,4.376,4.376,0,0,1,.4-1.942,2.944,2.944,0,0,1,1.121-1.263,3.053,3.053,0,0,1,1.615-.436A2.734,2.734,0,0,1-1477.616,1691.7Zm-2.334,1.705a2.134,2.134,0,0,0-.513,1.513,2.109,2.109,0,0,0,.513,1.505,1.777,1.777,0,0,0,1.359.545,1.788,1.788,0,0,0,1.352-.557,2.075,2.075,0,0,0,.532-1.493,2.093,2.093,0,0,0-.532-1.506,1.785,1.785,0,0,0-1.352-.557A1.766,1.766,0,0,0-1479.95,1693.41Z" transform="translate(1538.297 -1688.988)" fill="#ca8a26"/>
      <path id="Path_271" data-name="Path 271" d="M-1466.335,1691.654a2.8,2.8,0,0,1,1.462-.391v1.935h-.526q-1.988,0-1.987,1.846v3.422h-1.807v-7.1h1.807v1.358A2.982,2.982,0,0,1-1466.335,1691.654Z" transform="translate(1534.22 -1688.982)" fill="#ca8a26"/>
      <path id="Path_272" data-name="Path 272" d="M-1457.948,1696.169v1.551h-.948a2.625,2.625,0,0,1-1.827-.577,2.5,2.5,0,0,1-.635-1.922v-3.077h-.986v-1.525h.986v-1.756h1.808v1.756h1.589v1.525h-1.589v3.1a1,1,0,0,0,.2.718.956.956,0,0,0,.692.205Z" transform="translate(1532.088 -1688.235)" fill="#ca8a26"/>
      <path id="Path_273" data-name="Path 273" d="M-1452.831,1701.426a2.008,2.008,0,0,1-.417,1.307,1.562,1.562,0,0,1-1.288.513v-.692a.647.647,0,0,0,.487-.16.823.823,0,0,0,.153-.571v-.128h-.82v-1.666h1.577A3.412,3.412,0,0,1-1452.831,1701.426Z" transform="translate(1529.714 -1691.71)" fill="#ca8a26"/>
      <path id="Path_274" data-name="Path 274" d="M-1441.641,1691.935a2.833,2.833,0,0,1,.975,1.744h-1.692a1.4,1.4,0,0,0-.461-.82,1.386,1.386,0,0,0-.935-.308,1.074,1.074,0,0,0-.718.218.732.732,0,0,0-.257.59.6.6,0,0,0,.205.475,1.462,1.462,0,0,0,.513.282q.307.1.884.244a9.118,9.118,0,0,1,1.313.378,2.172,2.172,0,0,1,.872.628,1.734,1.734,0,0,1,.365,1.16,1.791,1.791,0,0,1-.712,1.474,3,3,0,0,1-1.916.564,3.619,3.619,0,0,1-2.217-.622,2.613,2.613,0,0,1-1.013-1.775h1.731a1.165,1.165,0,0,0,.461.826,1.668,1.668,0,0,0,1.038.3,1,1,0,0,0,.7-.224.756.756,0,0,0,.244-.583.643.643,0,0,0-.212-.5,1.435,1.435,0,0,0-.526-.295q-.314-.1-.891-.243a10.087,10.087,0,0,1-1.289-.366,2.055,2.055,0,0,1-.846-.6,1.676,1.676,0,0,1-.353-1.128,1.845,1.845,0,0,1,.705-1.5,2.988,2.988,0,0,1,1.948-.577A3.133,3.133,0,0,1-1441.641,1691.935Z" transform="translate(1527.136 -1688.988)" fill="#ca8a26"/>
      <path id="Path_275" data-name="Path 275" d="M-1429.785,1691.04a3.266,3.266,0,0,1,.73,2.269v4.128h-1.794v-3.923a1.855,1.855,0,0,0-.436-1.314,1.552,1.552,0,0,0-1.192-.468,1.592,1.592,0,0,0-1.23.5,2.04,2.04,0,0,0-.462,1.436v3.769h-1.807v-9.486h1.807v3.807a2.26,2.26,0,0,1,.929-1.121,2.76,2.76,0,0,1,1.493-.4A2.517,2.517,0,0,1-1429.785,1691.04Z" transform="translate(1523.881 -1687.951)" fill="#ca8a26"/>
      <path id="Path_276" data-name="Path 276" d="M-1418.635,1691.718a3.189,3.189,0,0,1,1.3,1.263,3.828,3.828,0,0,1,.475,1.942,3.794,3.794,0,0,1-.475,1.935,3.244,3.244,0,0,1-1.3,1.263,3.892,3.892,0,0,1-1.865.442,3.893,3.893,0,0,1-1.865-.442,3.247,3.247,0,0,1-1.3-1.263,3.8,3.8,0,0,1-.474-1.935,3.835,3.835,0,0,1,.474-1.942,3.192,3.192,0,0,1,1.3-1.263,3.938,3.938,0,0,1,1.865-.436A3.938,3.938,0,0,1-1418.635,1691.718Zm-3.147,1.66a2.108,2.108,0,0,0-.526,1.545,2.106,2.106,0,0,0,.526,1.544,1.734,1.734,0,0,0,1.282.532,1.734,1.734,0,0,0,1.282-.532,2.105,2.105,0,0,0,.526-1.544,2.108,2.108,0,0,0-.526-1.545,1.734,1.734,0,0,0-1.282-.531A1.734,1.734,0,0,0-1421.781,1693.378Z" transform="translate(1520.198 -1688.988)" fill="#ca8a26"/>
      <path id="Path_277" data-name="Path 277" d="M-1405.851,1691.718a2.945,2.945,0,0,1,1.121,1.263,4.376,4.376,0,0,1,.4,1.942,4.376,4.376,0,0,1-.4,1.942,2.94,2.94,0,0,1-1.121,1.262,3.046,3.046,0,0,1-1.615.436,2.671,2.671,0,0,1-1.532-.429,2.352,2.352,0,0,1-.9-1.148v4.871h-1.807v-10.485h1.807v1.474a2.318,2.318,0,0,1,.9-1.141,2.7,2.7,0,0,1,1.532-.423A3.051,3.051,0,0,1-1405.851,1691.718Zm-3.531,1.7a2.092,2.092,0,0,0-.532,1.506,2.074,2.074,0,0,0,.532,1.493,1.788,1.788,0,0,0,1.352.557,1.776,1.776,0,0,0,1.359-.545,2.11,2.11,0,0,0,.512-1.505,2.134,2.134,0,0,0-.512-1.513,1.766,1.766,0,0,0-1.359-.551A1.786,1.786,0,0,0-1409.382,1693.416Z" transform="translate(1516.329 -1688.988)" fill="#ca8a26"/>
      <path id="Path_278" data-name="Path 278" d="M-1388.88,1691.04a3.262,3.262,0,0,1,.73,2.269v4.128h-1.794v-3.923a1.855,1.855,0,0,0-.436-1.314,1.551,1.551,0,0,0-1.192-.468,1.594,1.594,0,0,0-1.231.5,2.04,2.04,0,0,0-.462,1.436v3.769h-1.807v-9.486h1.807v3.807a2.267,2.267,0,0,1,.929-1.121,2.762,2.762,0,0,1,1.493-.4A2.516,2.516,0,0,1-1388.88,1691.04Z" transform="translate(1511.151 -1687.951)" fill="#ca8a26"/>
      <path id="Path_279" data-name="Path 279" d="M-1376.263,1695.268h-5.2a1.954,1.954,0,0,0,.512,1.4,1.648,1.648,0,0,0,1.179.449,1.711,1.711,0,0,0,1.045-.308,1.36,1.36,0,0,0,.532-.833h1.91a3.054,3.054,0,0,1-.6,1.333,3.155,3.155,0,0,1-1.186.923,3.8,3.8,0,0,1-1.608.333,3.782,3.782,0,0,1-1.846-.442,3.108,3.108,0,0,1-1.256-1.263,3.976,3.976,0,0,1-.448-1.935,4.012,4.012,0,0,1,.448-1.942,3.057,3.057,0,0,1,1.256-1.263,3.826,3.826,0,0,1,1.846-.436,3.74,3.74,0,0,1,1.839.436,3.074,3.074,0,0,1,1.218,1.2,3.48,3.48,0,0,1,.43,1.737A3.477,3.477,0,0,1-1376.263,1695.268Zm-2.212-2.115a1.732,1.732,0,0,0-1.211-.449,1.774,1.774,0,0,0-1.231.449,1.832,1.832,0,0,0-.551,1.32h3.448A1.592,1.592,0,0,0-1378.474,1693.154Z" transform="translate(1507.468 -1688.988)" fill="#ca8a26"/>
      <path id="Path_280" data-name="Path 280" d="M-1368.3,1691.654a2.8,2.8,0,0,1,1.462-.391v1.935h-.526q-1.987,0-1.987,1.846v3.422h-1.807v-7.1h1.807v1.358A2.983,2.983,0,0,1-1368.3,1691.654Z" transform="translate(1503.709 -1688.982)" fill="#ca8a26"/>
      <path id="Path_281" data-name="Path 281" d="M-1356.984,1695.268h-5.2a1.957,1.957,0,0,0,.513,1.4,1.648,1.648,0,0,0,1.179.449,1.712,1.712,0,0,0,1.045-.308,1.362,1.362,0,0,0,.532-.833h1.91a3.057,3.057,0,0,1-.6,1.333,3.149,3.149,0,0,1-1.185.923,3.8,3.8,0,0,1-1.609.333,3.783,3.783,0,0,1-1.846-.442,3.11,3.11,0,0,1-1.256-1.263,3.968,3.968,0,0,1-.449-1.935,4,4,0,0,1,.449-1.942,3.059,3.059,0,0,1,1.256-1.263,3.826,3.826,0,0,1,1.846-.436,3.744,3.744,0,0,1,1.84.436,3.072,3.072,0,0,1,1.218,1.2,3.485,3.485,0,0,1,.429,1.737A3.409,3.409,0,0,1-1356.984,1695.268Zm-2.211-2.115a1.733,1.733,0,0,0-1.211-.449,1.771,1.771,0,0,0-1.23.449,1.837,1.837,0,0,0-.552,1.32h3.449A1.594,1.594,0,0,0-1359.195,1693.154Z" transform="translate(1501.468 -1688.988)" fill="#ca8a26"/>
    </g>
    <g id="Group_201" data-name="Group 201" transform="translate(-1597.738 1652.512)">
      <path id="Path_282" data-name="Path 282" d="M-1554.921,1672.128a1.517,1.517,0,0,1-1.316-.763l-3.4-4.619h-.736v3.427a1.614,1.614,0,0,1-1.615,1.615h0a1.614,1.614,0,0,1-1.614-1.615v-9.745a1.988,1.988,0,0,1,1.988-1.988h3.524a5.955,5.955,0,0,1,2.681.547,3.785,3.785,0,0,1,1.642,1.5,4.3,4.3,0,0,1,.547,2.181,3.875,3.875,0,0,1-.8,2.473,4.106,4.106,0,0,1-2.332,1.4l2.729,3.288a1.517,1.517,0,0,1-1.3,2.3Zm-5.452-7.59h2a2.019,2.019,0,0,0,1.416-.425,1.639,1.639,0,0,0,.453-1.255,1.665,1.665,0,0,0-.463-1.246,1.936,1.936,0,0,0-1.406-.453h-2Z" transform="translate(1563.601 -1656.59)" fill="#0000ad"/>
      <path id="Path_283" data-name="Path 283" d="M-1536.578,1659.016a6.4,6.4,0,0,1,2.426,2.436,6.987,6.987,0,0,1,.888,3.521,6.986,6.986,0,0,1-.9,3.531,6.445,6.445,0,0,1-2.436,2.445,6.756,6.756,0,0,1-3.408.878,6.752,6.752,0,0,1-3.407-.878,6.434,6.434,0,0,1-2.435-2.445,6.98,6.98,0,0,1-.9-3.531,6.931,6.931,0,0,1,.9-3.521,6.454,6.454,0,0,1,2.435-2.436,6.75,6.75,0,0,1,3.407-.877A6.788,6.788,0,0,1-1536.578,1659.016Zm-5.947,3.152a4.015,4.015,0,0,0-.935,2.8,4.017,4.017,0,0,0,.935,2.794,3.219,3.219,0,0,0,2.52,1.039,3.226,3.226,0,0,0,2.511-1.039,3.993,3.993,0,0,0,.944-2.794,4.021,4.021,0,0,0-.935-2.794,3.224,3.224,0,0,0-2.52-1.038A3.237,3.237,0,0,0-1542.525,1662.169Z" transform="translate(1558.355 -1656.496)" fill="#0000ad"/>
      <path id="Path_284" data-name="Path 284" d="M-1515.128,1660.579l-3.5,6.749v2.893a1.67,1.67,0,0,1-1.67,1.67h0a1.67,1.67,0,0,1-1.67-1.67v-2.893l-3.491-6.724a1.669,1.669,0,0,1,1.482-2.438h0a1.669,1.669,0,0,1,1.509.957l2.189,4.634,2.193-4.644a1.651,1.651,0,0,1,1.494-.947h0A1.652,1.652,0,0,1-1515.128,1660.579Z" transform="translate(1551.79 -1656.505)" fill="#0000ad"/>
      <path id="Path_285" data-name="Path 285" d="M-1497.276,1667.105v3.068a1.614,1.614,0,0,1-1.614,1.615h0a1.614,1.614,0,0,1-1.615-1.615V1660.7a2.262,2.262,0,0,1,2.261-2.261h2.968a5.082,5.082,0,0,1,3.625,1.18,4.174,4.174,0,0,1,1.246,3.181,4.391,4.391,0,0,1-.557,2.218,3.856,3.856,0,0,1-1.653,1.529,5.818,5.818,0,0,1-2.662.557Zm3.587-4.3q0-1.756-1.944-1.756h-1.643v3.474h1.643Q-1493.689,1664.519-1493.688,1662.8Z" transform="translate(1543.964 -1656.59)" fill="#0000ad"/>
      <path id="Path_286" data-name="Path 286" d="M-1480.309,1659.149v10.742a1.615,1.615,0,0,1-1.614,1.615h0a1.615,1.615,0,0,1-1.615-1.615v-10.742a1.615,1.615,0,0,1,1.615-1.615h0A1.614,1.614,0,0,1-1480.309,1659.149Z" transform="translate(1538.684 -1656.308)" fill="#0000ad"/>
      <path id="Path_287" data-name="Path 287" d="M-1469.785,1662.88a3.3,3.3,0,0,1,1.284,1.491v-.3a1.6,1.6,0,0,1,1.6-1.6h0a1.6,1.6,0,0,1,1.6,1.6v7.325a1.6,1.6,0,0,1-1.6,1.6h0a1.6,1.6,0,0,1-1.6-1.6v-.3a3.3,3.3,0,0,1-1.284,1.491,3.814,3.814,0,0,1-2.077.548,4.262,4.262,0,0,1-2.331-.652,4.452,4.452,0,0,1-1.623-1.878,6.506,6.506,0,0,1-.6-2.87,6.489,6.489,0,0,1,.6-2.879,4.465,4.465,0,0,1,1.623-1.87,4.268,4.268,0,0,1,2.331-.651A3.82,3.82,0,0,1-1469.785,1662.88Zm-2.709,2.964a2.664,2.664,0,0,0-.632,1.889,2.661,2.661,0,0,0,.632,1.887,2.172,2.172,0,0,0,1.671.68,2.184,2.184,0,0,0,1.671-.7,2.631,2.631,0,0,0,.651-1.869,2.627,2.627,0,0,0-.651-1.879,2.2,2.2,0,0,0-1.671-.689A2.174,2.174,0,0,0-1472.494,1665.843Z" transform="translate(1536.466 -1657.801)" fill="#0000ad"/>
      <path id="Path_288" data-name="Path 288" d="M-1454.489,1670.359h3.522a1.35,1.35,0,0,1,1.349,1.35h0a1.35,1.35,0,0,1-1.349,1.35h-5.681a1.371,1.371,0,0,1-1.371-1.371h0a3.194,3.194,0,0,1,.765-2.074l3.766-4.41h-3.115a1.341,1.341,0,0,1-1.34-1.34h0a1.341,1.341,0,0,1,1.34-1.34h5.426a1.371,1.371,0,0,1,1.371,1.371v.057a2.957,2.957,0,0,1-.743,1.96Z" transform="translate(1530.742 -1657.861)" fill="#0000ad"/>
      <path id="Path_289" data-name="Path 289" d="M-1437.77,1662.88a3.3,3.3,0,0,1,1.284,1.491v-.3a1.6,1.6,0,0,1,1.6-1.6h0a1.6,1.6,0,0,1,1.6,1.6v7.325a1.6,1.6,0,0,1-1.6,1.6h0a1.6,1.6,0,0,1-1.6-1.6v-.3a3.3,3.3,0,0,1-1.284,1.491,3.814,3.814,0,0,1-2.077.548,4.262,4.262,0,0,1-2.332-.652,4.455,4.455,0,0,1-1.623-1.878,6.51,6.51,0,0,1-.6-2.87,6.492,6.492,0,0,1,.6-2.879,4.469,4.469,0,0,1,1.623-1.87,4.267,4.267,0,0,1,2.332-.651A3.821,3.821,0,0,1-1437.77,1662.88Zm-2.709,2.964a2.664,2.664,0,0,0-.633,1.889,2.661,2.661,0,0,0,.633,1.887,2.171,2.171,0,0,0,1.671.68,2.184,2.184,0,0,0,1.671-.7,2.631,2.631,0,0,0,.651-1.869,2.627,2.627,0,0,0-.651-1.879,2.2,2.2,0,0,0-1.671-.689A2.172,2.172,0,0,0-1440.479,1665.843Z" transform="translate(1526.502 -1657.801)" fill="#0000ad"/>
      <path id="Path_290" data-name="Path 290" d="M-1410.662,1669.881a3.793,3.793,0,0,1-1.586,1.417,5.6,5.6,0,0,1-2.54.528,5.982,5.982,0,0,1-3.7-1.1,4.2,4.2,0,0,1-.5-.442,1.548,1.548,0,0,1,1.12-2.616h.236a1.417,1.417,0,0,1,1.225.791,1.62,1.62,0,0,0,.308.4,1.653,1.653,0,0,0,1.18.434,1.366,1.366,0,0,0,.982-.34,1.188,1.188,0,0,0,.359-.906,1.173,1.173,0,0,0-.33-.85,2.593,2.593,0,0,0-.822-.557q-.491-.217-1.359-.52a16.588,16.588,0,0,1-2.068-.839,3.81,3.81,0,0,1-1.378-1.209,3.5,3.5,0,0,1-.576-2.086,3.513,3.513,0,0,1,.6-2.058,3.845,3.845,0,0,1,1.671-1.33,6.1,6.1,0,0,1,2.445-.462,5.476,5.476,0,0,1,3.539,1.057c.051.041.1.083.149.125a1.594,1.594,0,0,1-1.064,2.781h0a1.674,1.674,0,0,1-1.382-.809,1.512,1.512,0,0,0-.194-.238,1.415,1.415,0,0,0-1.047-.387,1.353,1.353,0,0,0-.916.3,1.11,1.11,0,0,0-.349.888,1.127,1.127,0,0,0,.312.8,2.37,2.37,0,0,0,.783.537q.472.208,1.36.529a14.862,14.862,0,0,1,2.1.859,4.014,4.014,0,0,1,1.4,1.236,3.536,3.536,0,0,1,.585,2.115A3.677,3.677,0,0,1-1410.662,1669.881Z" transform="translate(1518.944 -1656.496)" fill="#0000ad"/>
      <path id="Path_291" data-name="Path 291" d="M-1397.408,1670.134v.737a1.02,1.02,0,0,1-1.019,1.019h-.435a4.18,4.18,0,0,1-2.879-.916,3.88,3.88,0,0,1-1.028-3.03v-3.87h-.057a1.359,1.359,0,0,1-1.359-1.359h0a1.359,1.359,0,0,1,1.359-1.36h.057v-.972a1.614,1.614,0,0,1,1.614-1.614h0a1.614,1.614,0,0,1,1.614,1.614v.972h.755a1.359,1.359,0,0,1,1.359,1.36h0a1.359,1.359,0,0,1-1.359,1.359h-.755V1668a1.187,1.187,0,0,0,.255.869,1.22,1.22,0,0,0,.859.245h0A1.02,1.02,0,0,1-1397.408,1670.134Z" transform="translate(1513.988 -1656.692)" fill="#0000ad"/>
      <path id="Path_292" data-name="Path 292" d="M-1384.231,1662.983a4.785,4.785,0,0,1,1.944,1.879,5.639,5.639,0,0,1,.709,2.87,5.638,5.638,0,0,1-.709,2.87,4.776,4.776,0,0,1-1.944,1.878,5.92,5.92,0,0,1-2.8.652,5.975,5.975,0,0,1-2.813-.652,4.76,4.76,0,0,1-1.954-1.878,5.643,5.643,0,0,1-.708-2.87,5.644,5.644,0,0,1,.708-2.87,4.77,4.77,0,0,1,1.954-1.879,5.983,5.983,0,0,1,2.813-.651A5.929,5.929,0,0,1-1384.231,1662.983Zm-4.361,2.814a2.713,2.713,0,0,0-.633,1.935,2.677,2.677,0,0,0,.633,1.925,2.07,2.07,0,0,0,1.557.661,2.04,2.04,0,0,0,1.548-.661,2.7,2.7,0,0,0,.623-1.925,2.738,2.738,0,0,0-.623-1.935,2.028,2.028,0,0,0-1.548-.67A2.057,2.057,0,0,0-1388.592,1665.8Z" transform="translate(1510.354 -1657.801)" fill="#0000ad"/>
      <path id="Path_293" data-name="Path 293" d="M-1369.414,1662.977l.019-.011a1.388,1.388,0,0,1,2.048,1.238v1.662h-.926a3.189,3.189,0,0,0-1.991.548,2.2,2.2,0,0,0-.708,1.85v3.181a1.614,1.614,0,0,1-1.615,1.615h0a1.614,1.614,0,0,1-1.614-1.615v-7.306a1.614,1.614,0,0,1,1.614-1.614h0a1.614,1.614,0,0,1,1.615,1.614v.368A4.578,4.578,0,0,1-1369.414,1662.977Z" transform="translate(1504.656 -1657.861)" fill="#0000ad"/>
      <path id="Path_294" data-name="Path 294" d="M-1352.613,1668.317h-7.306a2.442,2.442,0,0,0,.6,1.709,1.946,1.946,0,0,0,1.4.519,1.909,1.909,0,0,0,1.189-.359,1.734,1.734,0,0,0,.392-.411,1.281,1.281,0,0,1,1.074-.514h.67a1.24,1.24,0,0,1,1.012,1.974l-.014.018a4.834,4.834,0,0,1-1.774,1.378,5.627,5.627,0,0,1-2.4.5,5.659,5.659,0,0,1-2.748-.652,4.658,4.658,0,0,1-1.878-1.878,5.827,5.827,0,0,1-.68-2.87,5.878,5.878,0,0,1,.67-2.879,4.6,4.6,0,0,1,1.879-1.87,5.716,5.716,0,0,1,2.756-.651,5.719,5.719,0,0,1,2.757.642,4.543,4.543,0,0,1,1.84,1.8,5.371,5.371,0,0,1,.651,2.671A4.419,4.419,0,0,1-1352.613,1668.317Zm-3.728-2.917a2.051,2.051,0,0,0-1.425-.519,2.117,2.117,0,0,0-1.473.529,2.214,2.214,0,0,0-.661,1.548h4.116A1.941,1.941,0,0,0-1356.341,1665.4Z" transform="translate(1501.192 -1657.801)" fill="#0000ad"/>
      <path id="Path_295" data-name="Path 295" d="M-1330.237,1659.016a6.4,6.4,0,0,1,2.426,2.436,6.993,6.993,0,0,1,.887,3.521,6.98,6.98,0,0,1-.9,3.531,6.446,6.446,0,0,1-2.436,2.445,6.751,6.751,0,0,1-3.407.878,6.754,6.754,0,0,1-3.408-.878,6.444,6.444,0,0,1-2.436-2.445,6.981,6.981,0,0,1-.9-3.531,6.932,6.932,0,0,1,.9-3.521,6.463,6.463,0,0,1,2.436-2.436,6.752,6.752,0,0,1,3.408-.877A6.79,6.79,0,0,1-1330.237,1659.016Zm-5.948,3.152a4.018,4.018,0,0,0-.934,2.8,4.02,4.02,0,0,0,.934,2.794,3.221,3.221,0,0,0,2.521,1.039,3.227,3.227,0,0,0,2.51-1.039,3.992,3.992,0,0,0,.944-2.794,4.024,4.024,0,0,0-.935-2.794,3.225,3.225,0,0,0-2.52-1.038A3.24,3.24,0,0,0-1336.184,1662.169Z" transform="translate(1494.138 -1656.496)" fill="#0000ad"/>
      <path id="Path_296" data-name="Path 296" d="M-1308.64,1663.568a4.846,4.846,0,0,1,1.067,3.323v4.5a1.614,1.614,0,0,1-1.615,1.615h0a1.614,1.614,0,0,1-1.614-1.615v-4.125a2.326,2.326,0,0,0-.557-1.652,1.935,1.935,0,0,0-1.481-.594,2.018,2.018,0,0,0-1.558.624,2.522,2.522,0,0,0-.576,1.775v3.974a1.614,1.614,0,0,1-1.614,1.615h0a1.614,1.614,0,0,1-1.615-1.615v-7.306a1.614,1.614,0,0,1,1.615-1.615h0a1.614,1.614,0,0,1,1.614,1.615v.311a3.48,3.48,0,0,1,1.35-1.492,3.964,3.964,0,0,1,2.1-.547A3.648,3.648,0,0,1-1308.64,1663.568Z" transform="translate(1487.228 -1657.81)" fill="#0000ad"/>
      <path id="Path_297" data-name="Path 297" d="M-1296.444,1659.149v10.742a1.615,1.615,0,0,1-1.615,1.615h0a1.615,1.615,0,0,1-1.614-1.615v-10.742a1.614,1.614,0,0,1,1.614-1.615h0A1.615,1.615,0,0,1-1296.444,1659.149Z" transform="translate(1481.461 -1656.308)" fill="#0000ad"/>
      <path id="Path_298" data-name="Path 298" d="M-1291.661,1656.235a2,2,0,0,1,1.4-.481,2,2,0,0,1,1.4.481,1.579,1.579,0,0,1,.528,1.218,1.557,1.557,0,0,1-.528,1.2,2,2,0,0,1-1.4.481,1.994,1.994,0,0,1-1.4-.481,1.557,1.557,0,0,1-.528-1.2A1.579,1.579,0,0,1-1291.661,1656.235Zm3,5.8v7.306a1.615,1.615,0,0,1-1.615,1.615h0a1.615,1.615,0,0,1-1.614-1.615v-7.306a1.614,1.614,0,0,1,1.614-1.614h0A1.614,1.614,0,0,1-1288.659,1662.031Z" transform="translate(1479.132 -1655.754)" fill="#0000ad"/>
      <path id="Path_299" data-name="Path 299" d="M-1274.267,1663.568a4.849,4.849,0,0,1,1.067,3.323v4.5a1.615,1.615,0,0,1-1.615,1.615h0a1.615,1.615,0,0,1-1.615-1.615v-4.125a2.329,2.329,0,0,0-.557-1.652,1.937,1.937,0,0,0-1.482-.594,2.018,2.018,0,0,0-1.557.624,2.519,2.519,0,0,0-.576,1.775v3.974a1.614,1.614,0,0,1-1.615,1.615h0a1.614,1.614,0,0,1-1.614-1.615v-7.306a1.614,1.614,0,0,1,1.614-1.615h0a1.614,1.614,0,0,1,1.615,1.615v.311a3.476,3.476,0,0,1,1.35-1.492,3.961,3.961,0,0,1,2.105-.547A3.649,3.649,0,0,1-1274.267,1663.568Z" transform="translate(1476.531 -1657.81)" fill="#0000ad"/>
      <path id="Path_300" data-name="Path 300" d="M-1255.637,1668.317h-7.307a2.442,2.442,0,0,0,.6,1.709,1.946,1.946,0,0,0,1.4.519,1.908,1.908,0,0,0,1.189-.359,1.727,1.727,0,0,0,.392-.411,1.282,1.282,0,0,1,1.074-.514h.669a1.241,1.241,0,0,1,1.013,1.974l-.015.018a4.832,4.832,0,0,1-1.774,1.378,5.622,5.622,0,0,1-2.4.5,5.655,5.655,0,0,1-2.747-.652,4.655,4.655,0,0,1-1.879-1.878,5.836,5.836,0,0,1-.679-2.87,5.878,5.878,0,0,1,.67-2.879,4.6,4.6,0,0,1,1.879-1.87,5.716,5.716,0,0,1,2.756-.651,5.719,5.719,0,0,1,2.756.642,4.537,4.537,0,0,1,1.84,1.8,5.363,5.363,0,0,1,.651,2.671A4.461,4.461,0,0,1-1255.637,1668.317Zm-3.728-2.917a2.055,2.055,0,0,0-1.426-.519,2.115,2.115,0,0,0-1.473.529,2.207,2.207,0,0,0-.661,1.548h4.116A1.946,1.946,0,0,0-1259.365,1665.4Z" transform="translate(1471.011 -1657.801)" fill="#0000ad"/>
    </g>
    <g id="Group_202" data-name="Group 202" transform="translate(-1673.29 1645.337)">
      <path id="Path_301" data-name="Path 301" d="M-1637.447,1683.42q-1.009-1.215-1.985-2.459-.915-1.167-1.787-2.366-1.084-1.491-2.127-3.009a26.334,26.334,0,0,1-1.99-3.418c-.14-.289-.247-.593-.368-.886.8-.322,1.555-.6,2.287-.937a31.3,31.3,0,0,0,3.684-1.907c.777-.491,1.564-.97,2.31-1.508a18.779,18.779,0,0,0,2.911-2.51c.444-.483.886-.972,1.288-1.489a13.772,13.772,0,0,0,.849-1.3,7.126,7.126,0,0,0,.883-2.2,3.986,3.986,0,0,0-.086-2.154,3.07,3.07,0,0,0-1.136-1.5,5.061,5.061,0,0,0-2.337-.886,9.671,9.671,0,0,0-2.451-.071c-.584.065-1.171.11-1.75.205-.543.087-1.077.224-1.612.349-.4.094-.8.188-1.192.311-.6.188-1.189.393-1.779.6-.656.234-1.318.455-1.957.725-.992.419-1.979.853-2.949,1.322-.927.447-1.837.931-2.741,1.425-.782.426-1.547.881-2.312,1.336-.734.438-1.466.879-2.183,1.343-.9.583-1.793,1.181-2.679,1.785q-1.617,1.1-3.218,2.225c-.756.528-1.5,1.07-2.245,1.614q-1.367,1-2.723,2.02-1.207.907-2.4,1.834l-.649.5.378,1.424q1.186-.887,2.377-1.767c.48-.355.961-.709,1.446-1.056q1.643-1.177,3.291-2.344c.457-.326.91-.656,1.371-.977.731-.51,1.467-1.013,2.2-1.518l2.215-1.529c.733-.506,1.461-1.02,2.2-1.517.954-.641,1.912-1.278,2.881-1.9.863-.553,1.741-1.083,2.615-1.619a1.685,1.685,0,0,1,.271-.107c-.018.091-.022.13-.034.166-.3.895-.633,1.782-.906,2.686-.28.929-.521,1.87-.749,2.812q-.357,1.479-.651,2.975c-.273,1.393-.536,2.79-.767,4.19-.216,1.308-.4,2.622-.574,3.935-.13.957-.239,1.917-.343,2.878-.138,1.276-.271,2.553-.388,3.831-.1,1.131-.2,2.263-.262,3.4-.079,1.321-.131,2.646-.174,3.969-.011.325-.014.652-.014.977l1.347-.356c.019-1,.042-2,.079-2.993.034-.9.084-1.8.138-2.7.065-1.088.134-2.174.217-3.259.066-.874.151-1.747.235-2.621.114-1.172.225-2.345.355-3.514.1-.849.216-1.695.332-2.541.1-.689.185-1.379.3-2.064.209-1.208.428-2.414.665-3.617.2-1,.4-2,.644-2.993.206-.851.444-1.7.714-2.528.313-.966.674-1.916,1.025-2.87.062-.167.1-.354.3-.45a33.591,33.591,0,0,1,4.313-1.727c.634-.2,1.268-.4,1.914-.554a14.824,14.824,0,0,1,1.607-.282c.539-.07,1.084-.111,1.626-.141a6.811,6.811,0,0,1,2.274.253,3.683,3.683,0,0,1,1.475.8,2.616,2.616,0,0,1,.772,1.663,3.2,3.2,0,0,1-.138,1.38,7.347,7.347,0,0,1-1.434,2.568,20.594,20.594,0,0,1-1.548,1.656,18.013,18.013,0,0,1-2.478,1.98c-.753.506-1.507,1.015-2.286,1.478-.76.449-1.54.869-2.334,1.254-1.144.554-2.305,1.07-3.466,1.589-.129.058-.151.109-.117.223a8.59,8.59,0,0,0,.328,1.05c.407.888.817,1.776,1.281,2.635a40.716,40.716,0,0,0,2.413,3.848q1.044,1.5,2.121,2.97c.562.763,1.151,1.506,1.733,2.253.419.536.843,1.07,1.275,1.6q.627.762,1.255,1.52l1.655-.438-.293-.335Q-1636.341,1684.76-1637.447,1683.42Z" transform="translate(1672.232 -1648.274)" fill="#0000ad"/>
      <path id="Path_302" data-name="Path 302" d="M-1659.359,1694.668c.091-1.156.2-2.311.338-3.462q.281-2.3.631-4.589c.182-1.181.4-2.359.64-3.531q.376-1.857.82-3.7c.195-.8.439-1.586.685-2.372.188-.6.411-1.194.623-1.79.06-.169.137-.333.207-.5l-.037-.019c-.225.171-.46.333-.676.517-.623.533-1.24,1.076-1.858,1.617-.581.511-1.162,1.023-1.736,1.54q-1.138,1.025-2.268,2.062-1.039.948-2.078,1.9c-.642.592-1.281,1.187-1.924,1.779q-.656.606-1.316,1.21l3.011,11.364a3.663,3.663,0,0,0,.087.447,3.6,3.6,0,0,0,.147.433,3.361,3.361,0,0,0,3.513,2.04,3.437,3.437,0,0,0,.447-.087,3.417,3.417,0,0,0,.424-.143c0-.076.006-.154.01-.23C-1659.567,1697.661-1659.478,1696.163-1659.359,1694.668Z" transform="translate(1671.428 -1654.478)" fill="#0000ad"/>
      <path id="Path_303" data-name="Path 303" d="M-1632.124,1668.318a11.956,11.956,0,0,0,2.113-2.4,6.284,6.284,0,0,0,.895-2.041,2.633,2.633,0,0,0-.03-1.4,1.987,1.987,0,0,0-1.5-1.368,4.624,4.624,0,0,0-1.986-.041,8.458,8.458,0,0,0-1.349.341c-.611.212-1.207.471-1.8.723a.539.539,0,0,0-.289.24c-.314.8-.649,1.6-.9,2.422-.292.967-.53,1.952-.739,2.94-.231,1.1-.406,2.214-.6,3.322-.055.311-.086.626-.131.96.125-.05.218-.089.311-.124a20.252,20.252,0,0,0,2.6-1.22A18.166,18.166,0,0,0-1632.124,1668.318Z" transform="translate(1662.443 -1650.206)" fill="#0000ad"/>
      <path id="Path_304" data-name="Path 304" d="M-1632.691,1692.106c-.534-.791-1.063-1.587-1.561-2.4-.511-.834-.988-1.688-1.465-2.542-.339-.605-.678-1.214-.979-1.839a27.748,27.748,0,0,1-1.625-3.934c-.164-.545-.34-1.088-.462-1.643-.137-.622-.22-1.257-.325-1.875a.386.386,0,0,0-.019.074c-.039.333-.079.667-.113,1-.142,1.4-.292,2.8-.421,4.2-.1,1.131-.2,2.264-.264,3.4-.1,1.821-.174,3.644-.251,5.468-.04.965-.061,1.93-.09,2.895-.02.647-.044,1.294-.055,1.942q-.006.309-.009.622l9.595-2.545-.041-.056C-1631.437,1693.966-1632.064,1693.035-1632.691,1692.106Z" transform="translate(1663.032 -1655.462)" fill="#0000ad"/>
      <path id="Path_305" data-name="Path 305" d="M-1611.69,1680.757a.807.807,0,0,0-.231.013,2.538,2.538,0,0,0-.353.107.545.545,0,0,0-.353.346,2.721,2.721,0,0,0-.08.562c-.061.622-.121,1.244-.178,1.866a5.485,5.485,0,0,0-.039.679c.007.2.031.218.218.215a2.139,2.139,0,0,0,.275-.037c.1-.039.206-.072.3-.116a.46.46,0,0,0,.28-.346c.031-.166.065-.332.081-.5.062-.62.118-1.241.174-1.861.021-.234.04-.469.052-.7C-1611.534,1680.834-1611.581,1680.766-1611.69,1680.757Z" transform="translate(1654.503 -1656.359)" fill="#0000ad"/>
      <path id="Path_306" data-name="Path 306" d="M-1666.694,1664.313c.986-.657,1.974-1.313,2.974-1.948q1.7-1.081,3.427-2.12c1.246-.752,2.5-1.5,3.762-2.214,1.348-.762,2.714-1.492,4.08-2.223.7-.374,1.411-.729,2.126-1.077.826-.4,1.659-.783,2.493-1.166l-22.5,5.965a3.368,3.368,0,0,0-.455.088,3.309,3.309,0,0,0-.438.148,3.36,3.36,0,0,0-2.026,3.576,3.736,3.736,0,0,0,.079.383,3.382,3.382,0,0,0,.123.371l1.33,5.017a26.165,26.165,0,0,1,1.918-2.7C-1668.77,1665.716-1667.735,1665.008-1666.694,1664.313Z" transform="translate(1673.29 -1647.898)" fill="#0000ad"/>
      <path id="Path_307" data-name="Path 307" d="M-1594.29,1659.826a6.7,6.7,0,0,0,0,1.046A7.248,7.248,0,0,1-1594.29,1659.826Zm.154,2.064.061.273.02.02C-1594.085,1662.087-1594.111,1661.989-1594.135,1661.89Zm.827-5.813-.432,1.262a10.958,10.958,0,0,1,.527-1.205Z" transform="translate(1648.71 -1648.679)" fill="#0000ad"/>
      <path id="Path_308" data-name="Path 308" d="M-1598.4,1660.647a3.325,3.325,0,0,0-1.123-1.742,3.391,3.391,0,0,0-.639-.412l-2.482-1.43a7.843,7.843,0,0,0-.364,1.552,5.577,5.577,0,0,0,.063,1.922,2.24,2.24,0,0,1,.647,1.077,2.05,2.05,0,0,1,.072.458,2.26,2.26,0,0,1-.412,1.43,2.232,2.232,0,0,1-.833.721,2.257,2.257,0,0,1-.44.168,2.259,2.259,0,0,1-1.223-.018,2.26,2.26,0,0,1-1.554-1.6,2.268,2.268,0,0,1,.109-1.48,9.408,9.408,0,0,1-.107-3.148,11.808,11.808,0,0,1,.785-2.962l-3.708-2.135a5.674,5.674,0,0,1,.331,1.044,9.443,9.443,0,0,1,.2,1.751,8.661,8.661,0,0,1-.323,2.356,13.42,13.42,0,0,1-1.288,3.2,15.057,15.057,0,0,1-1.345,2.09c-.405.512-.811,1.022-1.234,1.52a19.581,19.581,0,0,1-2.668,2.535c-.632.5-1.3.963-1.969,1.421a21.9,21.9,0,0,1-2.757,1.578,23.469,23.469,0,0,1-3.63,1.444c-.549.165-1.1.315-1.658.475l-.683.192c.1.231.194.455.307.667a10.546,10.546,0,0,0,1.62,2.23c.8.833,1.587,1.672,2.429,2.457s1.735,1.52,2.62,2.261c.747.621,1.509,1.229,2.274,1.829.584.46,1.181.905,1.776,1.349.29.216.578.43.87.641l5.375-1.424c.074-.015.151-.032.224-.052s.149-.042.22-.068a3.321,3.321,0,0,0,1.774-1.413.019.019,0,0,0,.009-.011,3.468,3.468,0,0,0,.2-.384l0,0,6.448-13.811.584-1.254.5-1.068.623-1.338.028-.061.007-.011.129-.246.006-.013A3.34,3.34,0,0,0-1598.4,1660.647Zm-13.808,12.166a12.953,12.953,0,0,1-.181,1.443,1.4,1.4,0,0,1-.454.767,4.757,4.757,0,0,1-1.112.741c-.225.111-.451.218-.68.318-.155.067-.314.126-.473.183-.238.083-.475.168-.715.244-.307.1-.614.187-.922.281,0,0,0-.007,0-.011-.163.043-.327.092-.49.128-.26.059-.521.116-.782.166-.214.041-.43.076-.645.1a5.627,5.627,0,0,1-1.221.045,1.748,1.748,0,0,1-.713-.2.519.519,0,0,1-.264-.456,8.449,8.449,0,0,1,.065-1.346c.035-.351.063-.7.111-1.051a1.952,1.952,0,0,1,.231-.785,2.111,2.111,0,0,1,.5-.528,4.9,4.9,0,0,1,.8-.508c.21-.109.423-.207.637-.3.257-.112.521-.214.78-.316.085-.033.17-.059.255-.085.216-.065.428-.135.643-.2.373-.107.743-.211,1.119-.309.193-.05.392-.094.59-.127.29-.052.582-.091.872-.135a5.129,5.129,0,0,1,.889-.052,2.4,2.4,0,0,1,.711.1.77.77,0,0,1,.43.27.677.677,0,0,1,.092.366A8.265,8.265,0,0,1-1612.209,1672.813Zm8.5-4.68c-.161.22-.324.436-.488.656-.183.249-.364.5-.547.746-.2.266-.395.53-.591.8-.165.225-.331.449-.5.676-.179.242-.357.484-.539.726-.092.126-.189.249-.277.377a.329.329,0,0,0-.043.151q-.086.876-.164,1.752c0,.051-.032.055-.065.062-.325.087-.65.172-.972.26q-1.164.3-2.326.612a.819.819,0,0,1-.091.024c.006-.085.011-.162.02-.238.028-.314.059-.63.089-.944.022-.22.044-.442.065-.663a.144.144,0,0,0-.034-.115c-.264-.307-.524-.616-.785-.924-.242-.284-.486-.565-.728-.849s-.464-.543-.7-.815a.564.564,0,0,1-.039-.054c.03-.011.054-.018.076-.024l3.272-.866c.054-.015.08-.013.106.048.1.229.214.453.314.683.068.15.124.305.178.459.05.136.1.275.138.415a1.494,1.494,0,0,1,.03.18c.065-.137.12-.257.176-.377.068-.14.133-.284.205-.421.139-.264.281-.528.425-.789.126-.231.257-.457.39-.687a.15.15,0,0,1,.081-.05q1.178-.314,2.357-.623c.3-.081.6-.16.9-.24l.09-.021A.413.413,0,0,1-1603.71,1668.133Z" transform="translate(1658.771 -1647.739)" fill="#0000ad"/>
      <path id="Path_309" data-name="Path 309" d="M-1580.231,1646.879c-3-2.775-8.523-1.7-12.318,2.4q-.207.222-.4.451c-.065.076-.128.153-.191.231s-.125.154-.185.233-.122.157-.181.235a13.75,13.75,0,0,0-.809,1.219c-.05.083-.1.166-.144.251a12.257,12.257,0,0,0-.617,1.275c-.025.063-.052.128-.078.192l-.033.086c-.039.1-.076.2-.113.305s-.07.2-.1.307-.066.2-.094.307-.059.205-.086.31-.047.187-.068.281c-.026.111-.05.224-.072.335s-.037.207-.054.31-.031.207-.044.309c-.024.189-.042.377-.054.563a7.963,7.963,0,0,0,.013,1.251c.009.1.02.2.033.3.008.078.019.155.032.233,0,.03.009.063.015.1.031.168.065.333.107.495a.9.9,0,0,0,.026.107c.02.072.039.142.061.211s.048.153.074.227a.918.918,0,0,0,.03.089c.057.155.118.305.187.454.022.048.043.1.067.141s.057.116.088.17c.065.125.137.247.212.364.028.045.058.092.089.137a.852.852,0,0,0,.164-.026,1.279,1.279,0,0,0,.181-.07.928.928,0,0,0,.349-.3,1,1,0,0,0,.146-.305c-.037-.059-.072-.118-.107-.179a4.044,4.044,0,0,1-.2-.4,1.025,1.025,0,0,1-.048-.107l-.033-.078c-.017-.041-.032-.083-.047-.124-.039-.1-.077-.212-.109-.32a.586.586,0,0,1-.022-.074c-.022-.072-.042-.144-.059-.218-.021-.094-.043-.189-.061-.287-.013-.063-.024-.127-.035-.19-.013-.094-.026-.187-.037-.283s-.017-.17-.023-.258a6.685,6.685,0,0,1-.013-.738c0-.057,0-.116.008-.172a1.323,1.323,0,0,1,.007-.136c0-.061.009-.122.015-.182.009-.083.017-.168.028-.251.02-.155.043-.308.072-.462.013-.076.028-.155.046-.234s.032-.153.05-.231a.086.086,0,0,1,.006-.021c.013-.061.028-.122.046-.185s.039-.151.06-.227.044-.151.068-.227c.048-.153.1-.306.155-.458l0-.009c.081-.22.168-.438.269-.656.035-.085.072-.168.113-.251s.092-.192.14-.286l.006-.013.007-.011c.057-.116.118-.229.18-.342l.007-.01c.063-.114.129-.227.2-.338l.03-.05c.068-.111.135-.22.207-.329.089-.135.18-.27.277-.4.068-.1.139-.2.214-.292s.154-.2.235-.3l.032-.039c.074-.094.15-.185.229-.275.11-.129.223-.255.34-.381a10.424,10.424,0,0,1,7.281-3.6,5.678,5.678,0,0,1,1.905.311,4.556,4.556,0,0,1,1.591.955c2.555,2.367,1.879,7.268-1.506,10.924a11.152,11.152,0,0,1-5.79,3.442c-.017,0-.035.006-.052.011l-.326.7-.229.486c.271-.028.547-.072.826-.128a12.264,12.264,0,0,0,6.37-3.769,11.778,11.778,0,0,0,3.331-7.754A6.265,6.265,0,0,0-1580.231,1646.879Z" transform="translate(1649.203 -1645.337)" fill="#0000ad"/>
      <path id="Path_310" data-name="Path 310" d="M-1580.231,1646.879c-3-2.775-8.523-1.7-12.318,2.4q-.207.222-.4.451c-.065.076-.128.153-.191.231s-.125.154-.185.233-.122.157-.181.235a13.75,13.75,0,0,0-.809,1.219c-.05.083-.1.166-.144.251a12.257,12.257,0,0,0-.617,1.275c-.025.063-.052.128-.078.192l-.033.086c-.039.1-.076.2-.113.305s-.07.2-.1.307c-.009.026-.018.05-.026.077-.024.076-.049.155-.068.231-.031.1-.059.205-.086.31s-.047.187-.068.281c-.026.111-.05.224-.072.335s-.037.207-.054.31-.031.207-.044.309c-.024.189-.042.377-.054.563a7.963,7.963,0,0,0,.013,1.251c.009.1.02.2.033.3.008.078.019.155.032.233,0,.03.009.063.015.1.028.168.063.333.107.495a.9.9,0,0,0,.026.107c.02.072.039.142.061.211s.048.153.074.227a.918.918,0,0,0,.03.089c.057.155.118.305.187.454.022.048.043.1.067.141s.057.116.088.17c.065.125.137.247.212.364.028.045.058.092.089.137a.852.852,0,0,0,.164-.026,1.279,1.279,0,0,0,.181-.07.928.928,0,0,0,.349-.3,1,1,0,0,0,.146-.305c-.037-.059-.072-.118-.107-.179a4.044,4.044,0,0,1-.2-.4c-.018-.035-.033-.07-.048-.107l-.033-.078c-.015-.041-.032-.083-.047-.124-.039-.1-.077-.212-.109-.32a.586.586,0,0,1-.022-.074c-.022-.072-.042-.144-.059-.218-.021-.094-.043-.189-.061-.287-.013-.063-.024-.127-.035-.19-.013-.094-.026-.187-.037-.283s-.017-.17-.023-.258a6.685,6.685,0,0,1-.013-.738c0-.057,0-.114.008-.172a1.323,1.323,0,0,1,.007-.136c0-.061.009-.122.015-.182.009-.083.017-.168.028-.251.02-.155.043-.308.072-.462.013-.078.028-.155.046-.234s.032-.153.05-.231a.086.086,0,0,1,.006-.021c.013-.061.028-.122.046-.185s.039-.151.06-.227.044-.151.068-.227c.048-.153.1-.306.155-.458l0-.009c.081-.22.168-.438.269-.656.035-.083.072-.168.113-.251s.092-.19.14-.286l.006-.013.007-.011c.059-.116.12-.229.18-.342l.007-.01c.063-.114.129-.227.2-.338l.03-.05c.068-.111.135-.22.207-.329.089-.135.18-.27.277-.4.068-.1.139-.2.214-.292s.154-.2.235-.3l.032-.039c.074-.092.15-.183.229-.275.11-.129.223-.255.34-.381a10.424,10.424,0,0,1,7.281-3.6,5.678,5.678,0,0,1,1.905.311,4.556,4.556,0,0,1,1.591.955c2.555,2.367,1.879,7.268-1.506,10.924a11.152,11.152,0,0,1-5.79,3.442c-.017,0-.035.006-.052.011l-.326.7-.229.486c.271-.028.547-.072.826-.128a12.264,12.264,0,0,0,6.37-3.769,11.778,11.778,0,0,0,3.331-7.754A6.265,6.265,0,0,0-1580.231,1646.879Z" transform="translate(1649.203 -1645.337)" fill="#0000ad"/>
    </g>
  </g>
</svg>
