<svg xmlns="http://www.w3.org/2000/svg" width="16.705" height="16.705" viewBox="0 0 16.705 16.705">
  <g id="youtube_link_white" transform="translate(0 0)">
    <g id="Group_38" data-name="Group 38">
      <g id="Group_35" data-name="Group 35">
        <path id="Path_20" data-name="Path 20" d="M185.544,702.619a8.352,8.352,0,1,1,8.352-8.352A8.362,8.362,0,0,1,185.544,702.619Zm0-15.807A7.455,7.455,0,1,0,193,694.266,7.463,7.463,0,0,0,185.544,686.811Z" transform="translate(-177.192 -685.914)" fill="#fff"/>
      </g>
      <g id="Group_37" data-name="Group 37" transform="translate(3.501 4.94)">
        <g id="Group_36" data-name="Group 36">
          <path id="Path_21" data-name="Path 21" d="M188.949,690.747A2.145,2.145,0,0,0,186.8,688.6h-5.563a2.146,2.146,0,0,0-2.146,2.146v2.607a2.144,2.144,0,0,0,2.146,2.146H186.8a2.144,2.144,0,0,0,2.144-2.146Zm-3.51,1.436L183.22,693.4c-.1.053-.182-.017-.182-.127v-2.5c0-.112.088-.182.186-.127l2.234,1.282A.145.145,0,0,1,185.439,692.182Z" transform="translate(-179.096 -688.601)" fill="#fff"/>
        </g>
      </g>
    </g>
  </g>
</svg>
